<svg width="1324" height="495" viewBox="0 0 1324 495" fill="none" xmlns="http://www.w3.org/2000/svg">
<g clip-path="url(#clip0_64_206)">
<path d="M691.63 155.512C702.523 158.186 713.973 157.463 724.443 153.44C767.154 142.42 809.176 128.885 850.29 112.905C872.749 103.077 897.232 98.7593 921.698 100.31C929.984 100.252 938.259 99.6866 946.476 98.618C960.421 97.8808 974.356 97.6785 988.257 96.7515C996.97 96.5443 1005.64 95.4034 1014.11 93.3484C1052.29 81.7997 1089.52 67.2899 1125.45 49.9508C1177.46 25.9617 1224.74 40.4777 1270.34 67.1606C1282.9 74.7461 1292.77 86.08 1298.55 99.5668C1304.66 113.691 1306.14 129.383 1302.8 144.403C1299.46 159.422 1291.45 173.001 1279.93 183.2C1262.5 198.053 1241.6 205.313 1219.95 211.946C1207.32 215.203 1194.91 219.295 1182.82 224.197C1135.87 244.759 1086.03 255.599 1036.63 267.203C976.574 281.387 916.018 292.823 855.499 305.581C834.225 310.065 812.664 313.881 791.666 319.566C738.037 334.205 683.348 343.362 628.621 352.927C586.814 360.192 545.262 369.729 504.127 380.502C450.255 394.664 395.214 401.705 340.477 410.939C293.952 418.821 247.257 425.677 200.732 433.559C187.428 435.78 174.271 438.8 161.33 442.603C140.228 448.214 118.469 450.969 96.6339 450.794C81.5608 451.257 41.4498 431.103 32.6514 418.875C28.2889 413.62 25.505 407.235 24.6221 400.462C23.7392 393.69 24.7935 386.805 27.6629 380.607C37.21 360.477 47.9541 340.936 59.8374 322.091C65.6184 313.693 73.0563 306.566 81.6937 301.148C90.3311 295.731 99.9854 292.138 110.063 290.59C143.153 283.927 172.742 269.547 202.36 254.427C229.63 240.529 259.323 232.019 289.814 229.361C314.018 227.201 338.074 222.945 362.346 220.503C375.358 219.181 388.849 219.946 402.61 218.985C409.124 218.64 415.561 217.409 421.743 215.326C452.509 204.336 482.941 191.892 513.968 182.041C533.946 176.558 554.21 172.174 574.668 168.909C593.757 165.06 613.517 162.389 632.558 157.752C651.804 152.405 672.035 151.638 691.63 155.512V155.512ZM67.7764 341.307L68.1559 341.22L51.0572 368.247C58.6014 376.81 65.4813 385.937 71.637 395.547C78.2322 407.748 80.6563 410.187 94.5805 406.459C106.875 402.189 120.084 401.271 132.851 403.8C136.45 404.281 140.108 404.074 143.63 403.19C155.372 401.561 167.159 400.12 178.8 398.048C183.733 396.915 190.669 396.389 192.891 393.016C201.905 379.496 220.754 369.377 209.798 347.458C221.901 353.202 225.264 360.02 220.335 369.873C215.701 377.944 210.653 385.769 205.21 393.317C202.794 397.033 199.558 400.146 195.751 402.416C191.944 404.686 187.668 406.054 183.25 406.414C168.983 408.357 154.71 410.567 140.394 412.588C137.857 413.107 135.245 413.142 132.695 412.691C119.997 409.764 106.73 410.5 94.4344 414.815C77.6787 419.26 69.0462 414.716 62.8688 398.824C61.7689 394.913 59.6597 391.36 56.7529 388.521C53.8461 385.683 50.2439 383.659 46.3077 382.652C37.2213 395.856 40.7933 410.549 54.7996 419.651C77.3502 433.782 100.86 443.1 128.145 434.64C135.541 432.344 143.237 430.777 150.85 429.429C176.148 423.623 201.359 417.437 226.962 412.959C270.807 405.292 314.914 398.764 358.933 391.856C410.805 384.656 462.255 374.691 513.064 362.006C547.558 352.758 582.633 346.039 617.84 339.024C655.445 331.724 693.746 327.46 731.109 318.818C784.615 306.538 838.12 294.257 892.08 283.67C955.186 271.45 1017.36 254.316 1080.52 242.884C1139.97 232.167 1193.13 204.453 1249.62 186.029C1257.78 182.63 1265.44 178.14 1272.39 172.681C1275.72 169.826 1278.76 166.653 1281.47 163.207C1274.98 163.963 1270.12 164.546 1265.59 165.119L1265.67 165.436C1267.85 163.337 1269.99 161.049 1272.26 159.062C1298.22 136.992 1295.22 117.841 1277.91 94.3187C1275.54 90.9094 1272.61 87.9343 1269.23 85.5246C1260.36 79.2444 1251.01 73.6886 1241.25 68.9109C1203.29 52.0569 1164.88 45.6933 1125.86 66.2349C1119.92 69.3941 1113.43 71.5507 1107.35 74.345C1082.82 85.833 1058.3 97.0536 1031.36 101.506C1027.83 102.413 1024.39 103.604 1021.06 105.068C1036.46 114.182 1048.58 126.647 1066.51 126.459C1077.41 126.356 1088.21 125.274 1099.11 124.903C1109.34 123.742 1119.65 123.605 1129.91 124.492C1152.95 129.22 1176.9 126.497 1198.29 116.719C1212.26 109.984 1226.2 103.124 1240.21 96.3117C1240.07 95.6793 1239.74 94.2247 1239.09 94.0391C1222.23 88.7225 1207.63 75.296 1187.86 79.9659C1184.22 80.3217 1180.55 79.7692 1177.17 78.3579C1153.83 70.9325 1132.05 76.6652 1110.91 86.3771C1101.52 90.7287 1092.69 96.3504 1083.29 100.639C1075.29 105.132 1065.83 106.273 1056.99 103.813C1081.63 92.563 1105.57 81.6773 1129.31 70.8352C1129.81 70.6878 1130.31 70.5715 1130.83 70.4868C1146.14 65.6673 1162.4 64.6319 1178.2 67.4693C1199.32 69.3563 1219.71 76.0629 1237.83 87.0727C1241.55 89.3675 1244.27 92.9684 1245.47 97.1692C1245.98 99.3827 1240.84 103.092 1237.59 105.17C1231.76 108.772 1225.65 111.172 1219.82 114.774C1201 126.483 1181.11 136.975 1158.72 135.455C1132.93 134.161 1107.09 134.401 1081.33 136.175C1073.08 136.349 1065.04 138.788 1058.08 143.226C1051.13 147.664 1045.53 153.929 1041.89 161.337C1038.91 167.266 1034.98 172.667 1030.25 177.325C1020.5 185.215 1013.4 195.906 1009.92 207.956C1009.05 211.5 1007.3 214.766 1004.84 217.451C1002.37 220.137 999.259 222.153 995.801 223.314C989.566 225.86 983.09 227.77 976.471 229.015C962.662 231.119 948.779 232.708 934.823 233.781C927.605 234.545 920.316 234.314 913.161 233.093C880.709 226.294 848.179 219.446 816.001 211.519C784.875 204.333 754.954 192.677 727.168 176.916C722.72 174.25 717.791 172.485 712.661 171.723C686.392 168.365 660.31 166.695 633.988 174.135C614.36 178.86 594.502 182.574 574.493 185.26C564.165 186.24 553.909 187.86 543.783 190.112C513.019 199.369 482.458 209.513 451.917 219.452C449.609 220.942 447.487 222.703 445.598 224.697C465.11 220.951 481.299 218.966 496.007 210.531C503.782 205.018 513.422 202.805 522.823 204.376C511.96 211.293 500.621 217.433 488.891 222.75C477.427 227.911 463.526 223.911 451.474 231.737C460.814 238.781 469.309 244.754 477.272 251.315C487.404 259.519 499.849 264.345 512.863 265.117C540.738 267.64 568.579 271.17 596.449 273.961C606.739 274.995 617.108 275.211 627.429 275.505C637.749 275.8 649.179 275.706 660.01 275.617C674.966 275.513 690.041 277.38 704.106 269.624C713.558 264.392 723.665 260.275 733.645 256.187C739.076 253.742 745.438 252.748 748.256 242.98C738.698 243.975 730.527 244.053 722.704 245.649C716.333 247.066 709.694 246.702 703.515 244.598C697.337 242.493 691.857 238.728 687.676 233.715C684.194 229.867 681.131 225.661 678.537 221.166C673.732 213.102 666.375 206.872 657.63 203.462C638.834 195.876 618.473 192.985 598.308 195.04C590.817 195.761 583.221 195.44 575.725 195.563L575.443 191.433C591.811 189.94 607.937 187.97 624.455 186.842C652.739 185.343 674.41 195.349 688.074 222.106C696.051 237.718 706.956 241.141 724.318 238.754C732.462 237.371 740.766 237.193 748.962 238.224C750.706 238.238 752.398 238.813 753.789 239.865C755.18 240.916 756.195 242.388 756.684 244.061C757.172 245.735 757.109 247.521 756.502 249.156C755.896 250.791 754.779 252.186 753.317 253.136C747.216 257.822 740.552 261.722 733.479 264.747C722.636 270.298 711.551 275.372 698.285 281.679L713.958 287.602C690.939 291.155 671.25 295.873 651.318 296.92C616.1 298.741 580.791 296.27 546.169 289.562C516.406 283.744 489.578 275.055 466.213 255.052C458.16 247.698 448.731 242.011 438.471 238.317C400.174 226.068 362.07 232.351 323.96 242.962C365.272 243.4 404.396 250.265 436.443 278.795C429.323 276.374 422.356 273.527 415.579 270.268C404.282 265.138 393.333 257.465 381.468 255.661C359.386 252.557 337.115 250.995 314.817 250.986C290.328 250.747 269.399 264.273 247.026 271.804C230.771 277.266 202.426 284.304 185.168 282.207C221.748 269.284 255.253 257.466 288.681 245.6C286.804 244.353 284.528 243.854 282.301 244.201C252.443 248.547 223.585 258.123 197.052 272.489C173.205 284.62 149.841 296.241 123.29 300.936C115.642 302.436 108.257 305.051 101.369 308.697C87.212 316.341 73.0784 324.378 67.7764 341.307ZM1050.05 131.036C1043.71 127.167 1036.52 121.959 1028.64 118.107C1020.74 113.226 1011.96 109.948 1002.8 108.461C986.283 108.388 969.783 109.351 953.392 111.345C942.637 113.133 931.788 114.289 920.898 114.808C895.418 114.792 870.219 120.122 846.928 130.454C822.933 140.385 797.839 147.418 772.177 151.406C756.382 153.599 741.089 158.528 726.987 165.972C750.908 179.451 776.391 189.947 802.866 197.224C822.463 204.157 843.073 207.796 863.859 207.992C876.275 207.992 888.67 209.022 900.916 211.071C915.251 213.417 929.869 213.455 944.217 211.185C952.941 210.333 961.73 210.414 970.437 211.426C977.168 211.745 984.131 213.076 990.862 213.395C994.428 213.384 997.907 212.292 1000.84 210.264C1003.77 208.236 1006.02 205.366 1007.3 202.034C1020.34 177.935 1035.09 155.176 1050.05 131.036V131.036ZM682.713 284.321C648.817 284.378 614.967 284.446 581.165 284.526C614.947 289.289 648.774 297.437 682.713 284.321ZM978.204 220.029C967.634 216.205 956.252 215.193 945.173 217.091C930.883 218.517 916.508 218.901 902.162 218.241C897.003 217.803 891.887 216.951 886.864 215.694C915.672 227.79 945.227 224.868 978.204 220.029Z" fill="#DA923F"/>
<path d="M466.505 308.246C465.885 312.956 464.259 317.477 461.736 321.503C459.214 325.528 455.854 328.963 451.886 331.574C445.241 336.377 439.088 341.826 433.516 347.841C429.132 353.059 423.597 357.188 417.347 359.905C411.097 362.622 404.302 363.852 397.497 363.498C378.404 363.546 359.336 364.875 340.422 367.477C325.386 369.263 309.657 365.417 294.343 363.672C283.601 362.41 272.962 359.858 262.258 359.052C256.29 358.966 250.408 357.625 244.992 355.117C239.577 352.61 234.749 348.991 230.822 344.497C224.867 337.408 218.816 330.475 212.541 322.861C215.608 322.463 218.723 323.037 221.448 324.502C224.172 325.966 226.369 328.248 227.73 331.026C237.756 345.702 251.842 349.06 268.325 348.938C276.077 349.018 283.75 350.505 290.97 353.328C312.966 362.928 337.566 364.792 360.757 358.615C371.286 355.466 383.355 357.29 394.693 357.085C404.874 357.722 414.935 354.607 422.976 348.329C398.65 345.737 374.112 345.832 349.807 348.612C323.542 353.299 296.465 348.765 273.161 335.778C268.464 333.535 263.587 331.693 258.581 330.27C247.856 326.473 236.98 323.177 226.344 318.894C208.308 311.383 192.078 299.262 171.146 298.275C175.743 296.074 180.772 294.924 185.869 294.905C190.965 294.887 196.002 296.002 200.615 298.169C230.802 309.216 260.827 320.522 290.689 332.088C306.25 337.933 322.905 340.292 339.478 338.999C362.266 337.63 385.034 336.466 407.776 336.639C420.795 337.282 433.553 332.826 443.339 324.215C450.712 318.403 458.45 313.069 466.505 308.246V308.246Z" fill="#DA923F"/>
<path d="M67.7763 341.307C70.3869 339.772 72.7274 337.817 74.7042 335.523C83.0669 321.486 97.5199 318.901 111.489 314.497C115.893 313.122 120.635 313.303 124.922 315.009C142.118 324.378 161.61 329.824 171.304 349.436C175.371 355.646 180.309 361.239 185.968 366.043C177.458 368.995 171.277 368.75 166.797 360.257C157.597 342.795 140.782 335.669 125.653 326.026C116.278 319.989 93.691 323.975 84.1028 333.832C77.3964 341.764 70.2339 349.299 62.6516 356.398L68.3652 340.972L67.7763 341.307Z" fill="#DA923F"/>
<path d="M1190.93 192.243C1176.75 201.224 1097.61 225.978 1083.19 224.629C1091.87 221.837 1100.47 218.998 1109.13 216.143C1114.22 215.292 1119.15 213.645 1123.72 211.263C1142.46 197.175 1165.97 198.638 1186.61 190.837C1187.29 190.614 1188.41 191.423 1190.93 192.243Z" fill="#DA923F"/>
<path d="M405.018 312.438C418.173 309.419 430.316 306.632 442.878 303.35C436.325 317.437 422.678 320.635 405.018 312.438Z" fill="#DA923F"/>
<path d="M1265.93 164.843C1257.8 170.737 1248.28 174.435 1238.3 175.578L1237.39 171.593C1247.06 169.372 1256.74 167.152 1266.35 164.945L1265.93 164.843Z" fill="#DA923F"/>
<path d="M1019.9 145.28C1003.66 148.476 987.33 152.756 970.699 145.854C962.189 142.09 952.925 140.343 943.629 140.749C937.903 140.956 932.174 140.39 926.599 139.065C900.545 133.84 873.566 135.709 848.482 144.478C831.311 150.017 813.191 152.578 795.546 156.628C793.93 156.933 792.268 156.895 790.667 156.517C789.066 156.139 787.563 155.429 786.254 154.433C789.251 153.279 792.303 151.78 795.295 150.893C813.122 145.603 831.399 141.408 848.916 135.057C875.716 124.637 905.16 123.132 932.883 130.765C938.785 132.407 945.113 132.419 951.157 133.229C955.773 133.479 960.306 134.558 964.538 136.416C975.571 142.386 988.323 144.373 1000.65 142.042C1007.13 141.286 1013.42 141.109 1019.77 140.65L1019.9 145.28Z" fill="#DA923F"/>
</g>
<defs>
<clipPath id="clip0_64_206">
<rect width="206.414" height="1309.79" fill="white" transform="translate(46.7974 494.722) rotate(-102.927)"/>
</clipPath>
</defs>
</svg>
