<svg width="258" height="81" viewBox="0 0 258 81" fill="none" xmlns="http://www.w3.org/2000/svg">
<path d="M88.035 62.3139C86.083 62.3139 84.611 61.9939 83.619 61.3539C82.627 60.7139 82.115 59.6579 82.083 58.1859C82.083 57.8659 82.259 57.7059 82.611 57.7059C82.899 57.7059 83.331 57.7859 83.907 57.9459C84.515 58.0739 85.651 58.1379 87.315 58.1379C90.131 58.1379 92.723 57.8499 95.091 57.2739C97.459 56.6659 99.507 55.8659 101.235 54.8739C102.995 53.8499 104.355 52.7139 105.315 51.4659C106.275 50.1859 106.755 48.8579 106.755 47.4819C106.755 46.2339 106.371 45.2419 105.603 44.5059C104.867 43.7379 103.875 43.1619 102.627 42.7779C101.411 42.3619 100.067 42.0899 98.595 41.9619C97.155 41.8339 95.731 41.7699 94.323 41.7699C93.715 41.7699 93.107 41.7859 92.499 41.8179C91.891 41.8179 91.315 41.8179 90.771 41.8179C90.067 44.2499 89.379 46.7619 88.707 49.3539C88.035 51.9459 87.331 54.4899 86.595 56.9859C85.635 56.9859 84.803 56.7299 84.099 56.2179C83.395 55.7059 83.043 55.0819 83.043 54.3459C83.043 54.0579 83.091 53.6899 83.187 53.2419C83.315 52.7619 83.491 52.2019 83.715 51.5619C83.907 50.9539 84.227 49.9459 84.675 48.5379C85.155 47.1299 85.715 45.4659 86.355 43.5459C86.995 41.6259 87.699 39.6099 88.467 37.4979C89.267 35.3539 90.083 33.2579 90.915 31.2099C91.779 29.1619 92.627 27.3219 93.459 25.6899C92.179 25.9779 91.123 26.3139 90.291 26.6979C89.459 27.0819 88.803 27.4179 88.323 27.7059C87.843 27.9939 87.475 28.1379 87.219 28.1379C87.027 28.1379 86.771 28.0259 86.451 27.8019C86.163 27.5779 85.891 27.3219 85.635 27.0339C85.411 26.7459 85.299 26.4899 85.299 26.2659C87.027 25.5619 88.819 24.9379 90.675 24.3939C92.531 23.8499 94.771 23.5779 97.395 23.5779C98.547 23.5779 99.811 23.6739 101.187 23.8659C102.563 24.0259 103.875 24.3779 105.123 24.9219C106.371 25.4339 107.395 26.2179 108.195 27.2739C109.027 28.2979 109.443 29.6739 109.443 31.4019C109.443 32.7779 109.139 33.9779 108.531 35.0019C107.955 35.9939 107.171 36.8579 106.179 37.5939C105.187 38.2979 104.099 38.8899 102.915 39.3699C101.731 39.8179 100.563 40.1859 99.411 40.4739C101.395 40.7299 103.043 41.1459 104.355 41.7219C105.699 42.2659 106.755 42.9059 107.523 43.6419C108.323 44.3779 108.883 45.1459 109.203 45.9459C109.555 46.7139 109.731 47.4659 109.731 48.2019C109.731 50.0899 109.235 51.7859 108.243 53.2899C107.251 54.7939 105.939 56.1059 104.307 57.2259C102.707 58.3459 100.931 59.2739 98.979 60.0099C97.059 60.7779 95.139 61.3539 93.219 61.7379C91.299 62.1219 89.571 62.3139 88.035 62.3139ZM91.251 39.9939C93.043 39.9299 94.803 39.7219 96.531 39.3699C98.259 39.0179 99.811 38.5059 101.187 37.8339C102.595 37.1299 103.715 36.2339 104.547 35.1459C105.379 34.0259 105.795 32.6499 105.795 31.0179C105.795 29.4819 105.379 28.2979 104.547 27.4659C103.715 26.6339 102.627 26.0579 101.283 25.7379C99.939 25.4179 98.499 25.2579 96.963 25.2579C96.931 25.2579 96.899 25.2579 96.867 25.2579C96.835 25.2579 96.803 25.2579 96.771 25.2579C95.683 27.4019 94.691 29.7379 93.795 32.2659C92.899 34.7619 92.051 37.3379 91.251 39.9939ZM116.902 60.2499C114.854 60.2499 113.27 59.6899 112.15 58.5699C111.062 57.4819 110.518 56.1059 110.518 54.4419C110.518 53.0339 110.87 51.5459 111.574 49.9779C112.31 48.3779 113.286 46.8899 114.502 45.5139C115.718 44.1059 117.062 42.9699 118.534 42.1059C120.006 41.2419 121.478 40.8099 122.95 40.8099C123.782 40.8099 124.566 41.0339 125.302 41.4819C126.07 41.8979 126.454 42.7459 126.454 44.0259C126.454 45.2419 126.102 46.3779 125.398 47.4339C124.694 48.4899 123.75 49.4339 122.566 50.2659C121.382 51.0979 120.07 51.7859 118.63 52.3299C117.222 52.8419 115.798 53.1779 114.358 53.3379C114.326 53.4659 114.294 53.6099 114.262 53.7699C114.262 53.8979 114.262 54.1219 114.262 54.4419C114.262 54.6019 114.278 54.8899 114.31 55.3059C114.374 55.6899 114.518 56.1059 114.742 56.5539C114.966 57.0019 115.334 57.3859 115.846 57.7059C116.358 58.0259 117.062 58.1859 117.958 58.1859C119.302 58.1859 120.646 57.8179 121.99 57.0819C123.366 56.3139 124.646 55.3059 125.83 54.0579C127.046 52.8099 128.054 51.4179 128.854 49.8819L129.814 50.6499C128.95 52.5699 127.83 54.2499 126.454 55.6899C125.11 57.1299 123.606 58.2499 121.942 59.0499C120.31 59.8499 118.63 60.2499 116.902 60.2499ZM114.886 51.5619C115.718 51.4659 116.646 51.1779 117.67 50.6979C118.694 50.2179 119.67 49.6099 120.598 48.8739C121.558 48.1379 122.342 47.3379 122.95 46.4739C123.558 45.5779 123.862 44.6819 123.862 43.7859C123.862 43.4339 123.798 43.1939 123.67 43.0659C123.542 42.9379 123.334 42.8739 123.046 42.8739C122.31 42.8739 121.542 43.1459 120.742 43.6899C119.942 44.2019 119.158 44.8899 118.39 45.7539C117.622 46.5859 116.934 47.5139 116.326 48.5379C115.718 49.5619 115.238 50.5699 114.886 51.5619ZM143.869 59.0979C142.621 59.0979 141.661 58.7779 140.989 58.1379C140.349 57.5299 140.029 56.7459 140.029 55.7859C140.029 55.1459 140.141 54.4739 140.365 53.7699C140.589 53.0339 140.813 52.2979 141.037 51.5619C141.261 50.8259 141.373 50.1219 141.373 49.4499C141.373 48.7459 141.197 48.2659 140.845 48.0099C140.525 47.7219 140.141 47.5779 139.693 47.5779C138.733 47.5779 137.741 47.9779 136.717 48.7779C135.725 49.5459 134.749 50.5219 133.789 51.7059C132.861 52.8899 131.981 54.1219 131.149 55.4019C130.317 56.6819 129.597 57.8339 128.989 58.8579C128.381 58.8579 127.805 58.7459 127.261 58.5219C126.717 58.3299 126.253 57.9779 125.869 57.4659C125.901 57.3059 126.093 56.8259 126.445 56.0259C126.765 55.1939 127.133 54.2179 127.549 53.0979C127.965 51.9459 128.333 50.7459 128.653 49.4979C128.973 48.2499 129.133 47.1139 129.133 46.0899C129.357 45.8339 129.693 45.5779 130.141 45.3219C130.621 45.0659 131.117 44.9379 131.629 44.9379C132.749 44.9379 133.309 45.4179 133.309 46.3779C133.309 46.7619 133.229 47.3379 133.069 48.1059C132.941 48.8419 132.749 49.6899 132.493 50.6499C133.325 49.5299 134.237 48.4739 135.229 47.4819C136.221 46.4899 137.245 45.6899 138.301 45.0819C139.389 44.4419 140.477 44.1219 141.565 44.1219C142.941 44.1219 143.949 44.5859 144.589 45.5139C145.261 46.4419 145.597 47.4659 145.597 48.5859C145.597 49.5459 145.437 50.4419 145.117 51.2739C144.797 52.1059 144.477 52.8899 144.157 53.6259C143.869 54.3619 143.725 55.0819 143.725 55.7859C143.725 56.2979 143.837 56.6659 144.061 56.8899C144.317 57.0819 144.589 57.1779 144.877 57.1779C145.645 57.1779 146.445 56.8099 147.277 56.0739C148.109 55.3379 148.893 54.4099 149.629 53.2899C150.397 52.1379 151.069 50.9859 151.645 49.8339L152.461 50.5059C151.789 52.0739 151.021 53.5139 150.157 54.8259C149.325 56.1059 148.381 57.1459 147.325 57.9459C146.301 58.7139 145.149 59.0979 143.869 59.0979ZM167.889 61.6419C166.065 61.6419 164.673 61.0659 163.713 59.9139C162.785 58.7939 162.321 57.2419 162.321 55.2579C162.321 53.6899 162.593 51.8339 163.137 49.6899C163.681 47.5459 164.401 45.3059 165.297 42.9699C166.193 40.6019 167.185 38.2979 168.273 36.0579C169.393 33.7859 170.529 31.7379 171.681 29.9139C172.833 28.0579 173.921 26.5859 174.945 25.4979C175.969 24.4099 176.849 23.8659 177.585 23.8659C178.225 23.8659 178.705 24.2339 179.025 24.9699C179.345 25.7059 179.521 26.4419 179.553 27.1779C179.553 28.0739 179.361 29.1619 178.977 30.4419C178.593 31.7219 178.049 33.0819 177.345 34.5219C176.641 35.9619 175.825 37.3859 174.897 38.7939C173.969 40.2019 172.945 41.4819 171.825 42.6339C170.737 43.7859 169.601 44.6979 168.417 45.3699C168.193 45.7859 167.905 46.5059 167.553 47.5299C167.233 48.5539 166.929 49.7219 166.641 51.0339C166.385 52.3459 166.257 53.6579 166.257 54.9699C166.257 56.2499 166.433 57.3379 166.785 58.2339C167.169 59.1619 167.825 59.6259 168.753 59.6259C169.585 59.6259 170.481 59.2419 171.441 58.4739C172.401 57.7059 173.185 56.7779 173.793 55.6899C172.609 55.0499 171.713 54.1539 171.105 53.0019C170.497 51.8499 170.193 50.6339 170.193 49.3539C170.193 47.7859 170.609 46.5219 171.441 45.5619C172.305 44.6019 173.345 44.1219 174.561 44.1219C175.585 44.1219 176.433 44.5219 177.105 45.3219C177.777 46.0899 178.113 47.2899 178.113 48.9219C178.113 49.8499 177.985 50.8419 177.729 51.8979C177.505 52.9219 177.153 53.9459 176.673 54.9699C176.833 54.9699 176.961 54.9859 177.057 55.0179C177.185 55.0179 177.345 55.0179 177.537 55.0179C178.657 55.0179 179.617 54.7139 180.417 54.1059C181.217 53.4979 181.889 52.7779 182.433 51.9459C182.977 51.1139 183.409 50.3619 183.729 49.6899L184.449 50.6979C183.649 52.5859 182.657 54.0259 181.473 55.0179C180.321 56.0099 178.801 56.5059 176.913 56.5059C176.753 56.5059 176.577 56.5059 176.385 56.5059C176.225 56.5059 176.065 56.4899 175.905 56.4579C175.009 57.8979 173.889 59.1139 172.545 60.1059C171.233 61.1299 169.681 61.6419 167.889 61.6419ZM174.609 54.1059C174.897 53.4659 175.105 52.8259 175.233 52.1859C175.393 51.5139 175.473 50.7939 175.473 50.0259C175.473 48.8739 175.329 48.0259 175.041 47.4819C174.785 46.9379 174.465 46.6659 174.081 46.6659C173.665 46.6659 173.297 46.9539 172.977 47.5299C172.689 48.1059 172.545 48.7939 172.545 49.5939C172.545 50.2659 172.689 51.0499 172.977 51.9459C173.265 52.8419 173.809 53.5619 174.609 54.1059ZM169.329 42.3459C170.129 41.6099 170.897 40.7619 171.633 39.8019C172.401 38.8099 173.105 37.7859 173.745 36.7299C174.417 35.6419 174.993 34.5859 175.473 33.5619C175.985 32.5059 176.401 31.5619 176.721 30.7299C177.041 29.8659 177.233 29.1779 177.297 28.6659C177.297 28.6019 177.297 28.5539 177.297 28.5219C177.297 28.4579 177.297 28.4099 177.297 28.3779C177.009 28.4739 176.529 28.9379 175.857 29.7699C175.217 30.6019 174.481 31.6899 173.649 33.0339C172.849 34.3459 172.065 35.8179 171.297 37.4499C170.529 39.0499 169.873 40.6819 169.329 42.3459ZM185.178 60.3939C184.122 60.3939 183.21 60.0419 182.442 59.3379C181.642 58.6339 181.242 57.5779 181.242 56.1699C181.242 55.0499 181.498 53.8339 182.01 52.5219C182.522 51.2099 183.226 49.9139 184.122 48.6339C185.018 47.3539 186.042 46.2019 187.194 45.1779C188.346 44.1219 189.578 43.2739 190.89 42.6339C192.202 41.9939 193.514 41.6739 194.826 41.6739C196.202 41.6739 197.37 42.0259 198.33 42.7299C199.29 43.4339 199.77 44.3619 199.77 45.5139C199.77 46.3779 199.466 47.0019 198.858 47.3859C198.25 47.7699 197.53 47.8819 196.698 47.7219C196.762 47.4339 196.81 47.1459 196.842 46.8579C196.906 46.5699 196.938 46.2659 196.938 45.9459C196.938 45.3059 196.81 44.7299 196.554 44.2179C196.298 43.7059 195.754 43.4499 194.922 43.4499C194.026 43.4499 193.114 43.7539 192.186 44.3619C191.258 44.9699 190.362 45.7699 189.498 46.7619C188.666 47.7219 187.914 48.7939 187.242 49.9779C186.57 51.1299 186.042 52.2659 185.658 53.3859C185.274 54.5059 185.082 55.5139 185.082 56.4099C185.082 57.4339 185.45 57.9459 186.186 57.9459C186.922 57.9459 187.738 57.5939 188.634 56.8899C189.53 56.1539 190.426 55.2419 191.322 54.1539C192.25 53.0659 193.13 51.9619 193.962 50.8419C194.794 49.6899 195.514 48.7139 196.122 47.9139C196.218 47.7539 196.346 47.6739 196.506 47.6739C196.634 47.7059 196.874 47.7859 197.226 47.9139C197.61 48.0099 197.962 48.1699 198.282 48.3939C198.602 48.6179 198.762 48.9059 198.762 49.2579C198.762 49.5779 198.618 49.9939 198.33 50.5059C198.074 50.9859 197.754 51.5299 197.37 52.1379C197.018 52.7139 196.698 53.3059 196.41 53.9139C196.154 54.4899 196.026 55.0499 196.026 55.5939C196.026 56.0099 196.138 56.4099 196.362 56.7939C196.586 57.1459 196.954 57.3219 197.466 57.3219C198.234 57.3219 199.306 56.7619 200.682 55.6419C202.09 54.4899 203.514 52.5539 204.954 49.8339L205.866 50.7459C205.098 52.4739 204.17 54.0099 203.082 55.3539C202.026 56.6659 200.906 57.6899 199.722 58.4259C198.538 59.1939 197.338 59.5779 196.122 59.5779C194.81 59.5779 193.834 59.1619 193.194 58.3299C192.554 57.4979 192.202 56.6019 192.138 55.6419C192.138 55.5779 192.138 55.5299 192.138 55.4979C192.138 55.4659 192.138 55.4339 192.138 55.4019C190.858 56.9379 189.674 58.1539 188.586 59.0499C187.53 59.9459 186.394 60.3939 185.178 60.3939ZM200.49 38.1219C199.978 38.1219 199.514 37.9939 199.098 37.7379C198.682 37.4499 198.474 37.0339 198.474 36.4899C198.474 35.8499 198.826 35.3059 199.53 34.8579C200.266 34.4099 200.986 34.1859 201.69 34.1859C202.17 34.1859 202.586 34.2979 202.938 34.5219C203.29 34.7459 203.466 35.1619 203.466 35.7699C203.466 36.3139 203.146 36.8419 202.506 37.3539C201.898 37.8659 201.226 38.1219 200.49 38.1219ZM193.578 37.1619C193.066 37.1619 192.586 37.0339 192.138 36.7779C191.722 36.5219 191.514 36.1059 191.514 35.5299C191.514 34.9219 191.866 34.3939 192.57 33.9459C193.306 33.4659 194.026 33.2259 194.73 33.2259C195.242 33.2259 195.658 33.3379 195.978 33.5619C196.298 33.7859 196.458 34.1859 196.458 34.7619C196.458 35.3059 196.154 35.8499 195.546 36.3939C194.97 36.9059 194.314 37.1619 193.578 37.1619ZM209.242 60.8259C207.578 60.8259 206.202 60.2979 205.114 59.2419C204.058 58.2179 203.53 56.6339 203.53 54.4899C203.53 52.9219 203.834 51.3859 204.442 49.8819C205.05 48.3779 205.866 47.0339 206.89 45.8499C207.914 44.6339 209.05 43.6739 210.298 42.9699C211.578 42.2659 212.874 41.9139 214.186 41.9139C215.53 41.9139 216.49 42.2499 217.066 42.9219C217.674 43.5939 217.978 44.3779 217.978 45.2739C217.978 46.1699 217.754 47.0499 217.306 47.9139C216.89 48.7459 216.314 49.1619 215.578 49.1619C214.97 49.1619 214.474 48.8579 214.09 48.2499C214.41 48.0259 214.746 47.6099 215.098 47.0019C215.45 46.3939 215.626 45.6099 215.626 44.6499C215.626 44.3939 215.562 44.2019 215.434 44.0739C215.306 43.9139 215.066 43.8339 214.714 43.8339C213.914 43.8339 213.066 44.2019 212.17 44.9379C211.306 45.6419 210.49 46.5699 209.722 47.7219C208.986 48.8419 208.378 50.0419 207.898 51.3219C207.45 52.5699 207.226 53.7219 207.226 54.7779C207.226 55.6739 207.45 56.5059 207.898 57.2739C208.378 58.0099 209.29 58.3779 210.634 58.3779C211.85 58.3779 213.114 58.0259 214.426 57.3219C215.738 56.6179 216.97 55.6419 218.122 54.3939C219.274 53.1139 220.202 51.5939 220.906 49.8339L221.866 50.6979C221.098 52.6499 220.026 54.3939 218.65 55.9299C217.306 57.4339 215.802 58.6179 214.138 59.4819C212.506 60.3779 210.874 60.8259 209.242 60.8259ZM235.018 59.9619C234.026 59.9619 233.162 59.6419 232.426 59.0019C231.69 58.3619 231.098 57.5619 230.65 56.6019C230.202 55.6419 229.866 54.6659 229.642 53.6739C229.418 52.6499 229.306 51.7699 229.306 51.0339C229.754 50.9379 230.314 50.7939 230.986 50.6019C231.658 50.4099 232.346 50.1539 233.05 49.8339C233.754 49.4819 234.33 49.0659 234.778 48.5859C235.258 48.0739 235.498 47.4659 235.498 46.7619C235.498 46.1859 235.306 45.7219 234.922 45.3699C234.57 45.0179 234.058 44.8419 233.386 44.8419C232.49 44.8419 231.642 45.1459 230.842 45.7539C230.042 46.3299 229.29 47.0979 228.586 48.0579C227.914 49.0179 227.29 50.0579 226.714 51.1779C226.17 52.2979 225.674 53.3859 225.226 54.4419C224.81 55.4979 224.458 56.4099 224.17 57.1779C223.818 58.1379 223.482 58.7779 223.162 59.0979C222.842 59.4499 222.378 59.6259 221.77 59.6259C221.546 59.6259 221.274 59.5619 220.954 59.4339C220.666 59.3059 220.41 58.9859 220.186 58.4739C219.994 57.9619 219.898 57.1459 219.898 56.0259C219.898 54.0739 220.17 51.9299 220.714 49.5939C221.258 47.2579 221.978 44.8899 222.874 42.4899C223.802 40.0579 224.81 37.7379 225.898 35.5299C226.986 33.3219 228.09 31.3379 229.21 29.5779C230.33 27.8179 231.37 26.4259 232.33 25.4019C233.322 24.3779 234.138 23.8659 234.778 23.8659C235.322 23.8659 235.77 24.2019 236.122 24.8739C236.506 25.5139 236.698 26.3459 236.698 27.3699C236.698 28.4579 236.458 29.6739 235.978 31.0179C235.498 32.3299 234.81 33.6739 233.914 35.0499C233.05 36.3939 232.01 37.6739 230.794 38.8899C229.578 40.1059 228.234 41.1459 226.762 42.0099C225.866 44.0899 225.178 46.1539 224.698 48.2019C224.218 50.2179 223.914 52.0099 223.786 53.5779C224.362 52.2659 225.018 50.9219 225.754 49.5459C226.49 48.1699 227.306 46.8899 228.202 45.7059C229.098 44.4899 230.058 43.5139 231.082 42.7779C232.138 42.0419 233.258 41.6739 234.442 41.6739C235.722 41.6739 236.842 42.1219 237.802 43.0179C238.762 43.9139 239.242 45.0339 239.242 46.3779C239.242 47.3379 238.986 48.1699 238.474 48.8739C237.962 49.5779 237.322 50.1699 236.554 50.6499C235.818 51.0979 235.066 51.4339 234.298 51.6579C233.53 51.8819 232.874 52.0099 232.33 52.0419C232.426 52.4579 232.554 52.9859 232.714 53.6259C232.906 54.2659 233.146 54.8899 233.434 55.4979C233.722 56.1059 234.09 56.6179 234.538 57.0339C234.986 57.4499 235.514 57.6579 236.122 57.6579C236.922 57.6579 237.738 57.2899 238.57 56.5539C239.434 55.8179 240.266 54.8419 241.066 53.6259C241.898 52.4099 242.634 51.0659 243.274 49.5939L243.946 50.4099C243.402 52.0099 242.65 53.5459 241.69 55.0179C240.762 56.4899 239.722 57.6739 238.57 58.5699C237.418 59.4979 236.234 59.9619 235.018 59.9619ZM228.154 38.7459C229.018 37.9779 229.93 37.0339 230.89 35.9139C231.85 34.7619 232.666 33.5459 233.338 32.2659C234.042 30.9539 234.41 29.7059 234.442 28.5219C234.442 28.4899 234.442 28.4739 234.442 28.4739C234.442 28.4419 234.442 28.4099 234.442 28.3779C234.122 28.5059 233.61 29.0659 232.906 30.0579C232.234 31.0179 231.482 32.2499 230.65 33.7539C229.818 35.2579 228.986 36.9219 228.154 38.7459ZM246.342 60.3459C244.934 60.3459 243.798 59.9299 242.934 59.0979C242.07 58.2659 241.638 57.0019 241.638 55.3059C241.638 53.9939 241.878 52.3619 242.358 50.4099C242.87 48.4579 243.51 46.4419 244.278 44.3619C244.054 44.2979 243.782 44.2499 243.462 44.2179C243.174 44.1539 242.886 44.0579 242.598 43.9299V42.4419C243.11 42.5059 243.526 42.5539 243.846 42.5859C244.198 42.6179 244.55 42.6499 244.902 42.6819C245.574 40.9859 246.294 39.3539 247.062 37.7859C247.862 36.1859 248.646 34.7619 249.414 33.5139C250.214 32.2659 250.966 31.2899 251.67 30.5859C252.374 29.8499 252.998 29.4819 253.542 29.4819C253.862 29.4819 254.166 29.6099 254.454 29.8659C254.742 30.0899 254.886 30.4259 254.886 30.8739C254.886 31.5139 254.55 32.4259 253.878 33.6099C253.238 34.7939 252.438 36.1859 251.478 37.7859C250.518 39.3539 249.59 41.0339 248.694 42.8259C248.95 42.8259 249.206 42.8259 249.462 42.8259C249.718 42.8259 249.958 42.8259 250.182 42.8259C251.59 42.8259 252.854 42.8099 253.974 42.7779C255.126 42.7139 256.294 42.6179 257.478 42.4899V44.0739C255.718 44.2339 254.102 44.3619 252.63 44.4579C251.158 44.5539 249.75 44.6179 248.406 44.6499C248.31 44.6499 248.214 44.6499 248.118 44.6499C248.022 44.6499 247.926 44.6499 247.83 44.6499C247.158 46.2179 246.566 47.8339 246.054 49.4979C245.574 51.1299 245.334 52.7299 245.334 54.2979C245.334 55.6099 245.542 56.5379 245.958 57.0819C246.374 57.6259 247.03 57.8979 247.926 57.8979C249.526 57.8979 251.158 57.1779 252.822 55.7379C254.518 54.2659 255.99 52.2819 257.238 49.7859L257.91 50.2659C257.078 52.1539 256.038 53.8659 254.79 55.4019C253.574 56.9379 252.246 58.1379 250.806 59.0019C249.366 59.8979 247.878 60.3459 246.342 60.3459Z" fill="white"/>
<g clip-path="url(#clip0_64_125)">
<path d="M51.6233 9.5844C58.3905 7.0412 63.9669 9.18746 68.97 13.6613C70.3115 14.7815 71.1754 16.3709 71.3858 18.1058C71.5123 18.9867 71.7909 19.8389 72.2091 20.6245C72.8514 21.9276 73.0278 23.4115 72.7089 24.8289C72.0066 28.2553 70.6579 31.5166 68.7348 34.4381C65.3368 39.504 61.324 44.1291 56.7882 48.2077C53.9509 50.8489 51.3049 53.691 48.5608 56.4351C46.2479 58.748 43.9889 61.1148 41.5535 63.2856C40.1801 64.4883 38.6565 65.5079 37.0208 66.3188C34.2695 67.7489 31.4447 69.0329 28.5582 70.1654C24.8928 71.5669 21.0756 71.5032 17.2485 70.7731C15.7553 70.5183 14.3887 69.7755 13.3627 68.6611C11.3536 66.3874 9.83945 63.854 9.52584 60.7375C9.14212 57.1912 9.68756 53.6061 11.1086 50.3344C11.6623 49.0652 12.1768 47.7765 12.7306 46.5073C13.007 45.7806 13.3516 45.0817 13.7596 44.4198C16.0921 41.0583 18.1992 37.5498 20.9776 34.4969C26.2845 28.651 32.2431 23.5254 38.1723 18.3704C39.0887 17.5717 40.0148 16.7828 40.9164 15.9595C44.0881 13.2289 47.7112 11.0716 51.6233 9.5844ZM58.5963 41.8129C58.5473 41.7639 58.4689 41.7345 58.4003 41.6953C59.0949 40.5027 59.8692 39.3583 60.7181 38.2701C62.3053 36.3549 64.0422 34.5689 65.9123 32.9289C68.0538 31.0757 69.6341 28.6604 70.4744 25.9559C71.131 24.133 71.5671 22.3543 70.6018 20.4971C70.5004 20.1825 70.4379 19.8567 70.4156 19.5269C69.8913 17.0425 68.774 14.9452 66.6278 13.5143C65.5595 12.8087 64.4913 12.1227 63.3838 11.4856C58.2239 8.53083 51.398 10.1626 47.1152 13.6319C48.4088 13.3673 49.6927 13.0145 50.9472 12.6519C52.1505 12.2431 53.3843 11.9301 54.637 11.716C58.1945 11.3534 61.4972 12.598 64.8343 13.5438C65.369 13.6993 65.8741 13.9427 66.3288 14.2641C66.6404 14.5566 66.9092 14.8914 67.1276 15.2588C65.8045 16.0428 64.604 15.8223 63.4034 15.7194C61.4433 15.5332 59.4147 15.053 57.582 16.2095C55.7493 17.3659 53.6521 17.6011 51.5107 17.5668C49.3997 17.505 47.298 17.87 45.3315 18.6399C44.2389 19.1849 43.0948 19.6199 41.9161 19.9385C40.6025 20.1375 39.3557 20.6483 38.2801 21.4281C37.8881 21.7124 37.3785 21.8496 36.9718 22.0799C36.1361 22.4836 35.3446 22.973 34.6099 23.5401C29.9872 27.5994 25.5993 31.9185 21.4676 36.4766C21.2128 36.7314 21.0168 37.0548 20.7963 37.344C23.119 36.2267 25.4318 35.2467 27.4066 33.5561C29.5081 31.6224 32.1557 30.385 34.9872 30.0133C37.0123 29.7516 39.0097 29.3089 40.9556 28.6902C43.3518 28.0189 45.8068 27.573 48.1785 26.8282C49.9817 26.2431 51.9284 26.2759 53.7108 26.9213C54.6566 27.2398 55.5925 27.5975 56.5725 27.8229C57.3768 28.0127 58.1942 28.142 59.0178 28.21C61.2032 28.4354 63.4279 28.553 65.6232 28.7882C66.1745 28.9381 66.7035 29.1605 67.1962 29.4497C66.9449 29.7713 66.6553 30.0609 66.3337 30.3122C64.5357 31.1697 62.6329 31.7875 60.674 32.1498C59.6421 32.3469 58.6214 32.5988 57.6163 32.9044C55.3003 33.678 52.8519 33.9764 50.4179 33.7815C48.4343 33.5944 46.4415 33.5224 44.4495 33.5659C43.5149 33.638 42.5903 33.8072 41.6907 34.0706C40.0785 34.4185 38.4762 34.9429 36.8395 35.1487C34.2595 35.5146 31.7578 36.3044 29.4353 37.4861C25.569 39.3922 21.6391 41.2053 17.6797 42.94C17.2115 43.0933 16.7786 43.3388 16.4066 43.6619C16.0347 43.9851 15.7311 44.3794 15.5139 44.8216C14.2986 47.6147 13.0344 50.3883 11.9416 53.2255C11.52 54.4306 11.2708 55.6894 11.2017 56.9643C10.942 59.9877 11.1968 62.9082 13.0001 65.5543C14.4652 67.7055 16.2832 69.1315 18.9342 69.3128C19.5418 69.3618 20.1445 69.4647 20.7326 69.4745C24.6429 69.6509 28.3524 69.0776 31.6061 66.6275C32.7233 65.7847 33.919 65.0986 35.095 64.3734C35.9624 63.8393 36.8689 63.3542 37.7509 62.8445L37.9518 63.0454L36.717 64.5449C38.2409 63.9805 39.6178 63.0793 40.745 61.9086C43.195 59.4585 45.6059 57.0476 48.0315 54.622C50.8932 51.7603 53.6373 48.781 56.5677 45.9977C60.6202 42.295 64.2639 38.1683 67.4363 33.6884C68.1008 32.7665 68.6705 31.7798 69.1366 30.7434C68.3967 31.3853 67.7401 32.0517 67.0933 32.728L65.4909 34.4088C64.4766 35.4231 63.5847 36.5599 62.5018 37.4958C61.4963 38.2754 60.6454 39.236 59.9929 40.3282C59.6004 40.8873 59.1264 41.3845 58.5865 41.8031L58.5963 41.8129ZM17.9003 41.9844C19.0126 41.3131 20.0906 40.5683 21.2471 39.9803C23.8099 38.6719 26.4315 37.4714 28.9894 36.1581C31.2992 34.9503 33.7927 34.1324 36.3691 33.7374C37.893 33.5071 39.368 32.973 40.8724 32.6349C42.145 32.2877 43.445 32.05 44.7582 31.9243C46.3128 31.8321 47.8728 31.9159 49.4085 32.1743C52.1433 32.7122 54.9732 32.492 57.5918 31.5372C58.0706 31.4015 58.5612 31.3112 59.0569 31.2677C60.527 31.0129 62.002 30.8022 63.4622 30.4984C64.152 30.3073 64.8281 30.0699 65.486 29.7879C63.6887 29.2879 61.8447 28.9742 59.9831 28.8519C57.0626 28.6755 54.1323 28.6265 51.202 28.5383C50.7076 28.5435 50.2144 28.5877 49.727 28.6706C48.6931 28.8127 47.664 29.0381 46.6203 29.1214C43.7586 29.3567 40.8625 29.3812 38.1429 30.5033C37.7847 30.6546 37.3999 30.7329 37.011 30.7336C33.4143 30.714 30.5967 32.581 27.8035 34.5214C26.5883 35.3741 25.3338 36.1875 24.0696 36.9715C23.315 37.4322 22.4966 37.7801 21.7322 38.2309C20.1528 39.1309 18.8328 40.4239 17.9003 41.9844ZM65.5252 14.9403C64.3517 14.0205 62.9342 13.4652 61.4482 13.3428C60.5642 13.2836 59.686 13.1558 58.8217 12.9606C56.6461 12.3236 54.5586 12.7058 52.4564 13.2693C50.7462 13.725 49.0263 14.1612 47.2916 14.4552C44.18 14.9795 41.9798 16.8269 40.0442 19.1643C41.0341 19.0655 42.0102 18.8585 42.9549 18.5468C45.4687 17.7187 47.86 16.4643 50.56 16.3516C52.8337 16.2689 55.0644 15.7078 57.1067 14.7051C58.2548 14.1321 59.5679 13.9812 60.8161 14.2788C62.3548 14.6022 63.9375 14.7149 65.5007 14.9256L65.5252 14.9403ZM47.8306 28.1757C48.7256 27.9772 49.6323 27.8364 50.5453 27.7543C51.4662 27.7825 52.3844 27.8692 53.2943 28.014C52.4642 27.5026 51.503 27.2441 50.5283 27.2702C49.5536 27.2963 48.6077 27.6059 47.8061 28.161L47.8306 28.1757Z" fill="white"/>
<path d="M13.5686 53.2357C13.7484 52.8591 13.9651 52.5013 14.2154 52.1674C15.1416 51.1335 16.053 50.0848 17.0722 49.144C18.9 47.4632 20.7278 45.7629 22.6928 44.2487C23.812 43.4412 25.0548 42.8206 26.3728 42.4112C28.2174 41.8103 30.1021 41.3404 32.0129 41.0048C33.7561 40.7333 35.5131 40.5599 37.2757 40.4854C39.0348 40.3222 40.8028 40.2763 42.5679 40.3482C44.2529 40.5853 45.9622 40.5936 47.6494 40.3727C48.6402 40.2829 49.6384 40.3225 50.6189 40.4903C51.2707 40.5442 51.9224 40.6079 52.5643 40.7108C53.2062 40.8137 54.0197 40.9901 54.8135 41.1469C54.691 41.5144 54.6861 41.7447 54.593 41.7986C52.9335 42.6611 51.2723 43.5121 49.6095 44.3516C48.4237 44.9494 47.1888 45.4591 46.0618 46.1451C44.7898 46.9413 43.3636 47.459 41.877 47.6641C38.6968 48.0905 35.5215 48.5805 32.3118 48.8794C29.723 49.1572 27.1696 49.7007 24.692 50.5014C24.5352 50.5504 24.3784 50.619 24.2167 50.6533C21.2473 51.2915 18.335 52.1715 15.5091 53.2847C14.9496 53.452 14.3778 53.5749 13.7989 53.6522L13.5686 53.2357ZM52.3879 42.073L52.2654 41.8427C51.8817 41.8338 51.5003 41.7812 51.1286 41.6859C49.4373 41.1414 47.6374 41.0253 45.8903 41.3478C43.5921 41.6173 41.2645 41.681 38.9565 41.8525C38.3489 41.8917 37.751 41.9799 37.1483 42.073C35.9674 42.2739 34.7766 42.4846 33.5859 42.6954C33.0399 42.7807 32.4985 42.8935 31.9639 43.0335C29.3276 43.7097 26.7256 44.4104 24.1285 45.1847C23.3591 45.4534 22.6378 45.8439 21.992 46.3411C21.0414 47.0075 20.1741 47.7768 19.2626 48.5119C18.0572 49.4821 16.8321 50.4328 15.6512 51.4275C15.3843 51.7134 15.1584 52.035 14.9799 52.383C15.947 52.2259 16.8894 51.9426 17.7828 51.5402C18.6857 51.1383 19.6285 50.8328 20.5955 50.6288C22.5084 50.3319 24.3789 49.8071 26.167 49.0656C27.8483 48.3379 29.6028 47.7925 31.4004 47.4387C35.002 46.8458 38.6478 46.5126 42.2641 46.0128C43.1334 45.8706 43.9835 45.6289 44.7975 45.2925C46.6008 44.5966 48.3796 43.8371 50.1632 43.0923C50.8934 42.7346 51.6186 42.3817 52.3977 42.0632L52.3879 42.073ZM36.8396 41.4213C35.345 40.5442 34.0759 41.4507 32.743 41.7349C31.4102 42.0191 29.9695 42.4406 28.5681 42.7444C25.5643 43.4059 25.5545 43.3961 24.8783 44.2683C26.8628 43.7244 28.818 43.1413 30.7977 42.6709C32.7773 42.2004 34.8207 41.8329 36.8396 41.4213ZM41.24 41.2253C41.3184 41.1469 41.3723 41.093 41.3527 41.044C41.3331 40.995 41.2743 40.9656 41.2547 40.946C40.9509 40.9362 40.6568 40.9362 40.3579 40.9313L40.3726 41.1518L41.24 41.2253Z" fill="white"/>
<path d="M51.7558 48.5364C51.3393 49.8643 44.038 57.6066 42.372 58.4005C42.3328 57.4596 42.9747 57.0431 43.499 56.4894C44.5918 55.328 45.6698 54.152 46.8214 53.0495C48.4433 51.5059 50.1192 50.026 51.7558 48.5364Z" fill="white"/>
<path d="M58.5868 41.8035L57.2147 43.5872L56.9305 43.3716C57.2607 42.6911 57.7643 42.1097 58.3907 41.6859C58.4594 41.7251 58.5231 41.7692 58.5868 41.8035Z" fill="white"/>
</g>
<defs>
<clipPath id="clip0_64_125">
<rect width="78.2318" height="35.1832" fill="white" transform="translate(0 55.3182) rotate(-45)"/>
</clipPath>
</defs>
</svg>
