<svg width="613" height="459" viewBox="0 0 613 459" fill="none" xmlns="http://www.w3.org/2000/svg">
<path d="M387.352 28.7929C418.531 15.9484 448.574 21.1474 477.483 31.4689C499.91 39.3222 521.529 49.3594 542.034 61.4392C579.343 83.8406 599.548 119.163 608.629 161.29C617.107 200.353 613.188 241.122 597.429 277.808C591.398 290.329 584.599 302.458 577.072 314.124C556.254 352.445 526.869 385.327 491.256 410.152C452.015 435.541 407.335 451.086 360.941 455.49C291.017 464.129 223.211 452.814 156.086 434.923C141.82 430.517 128.165 424.3 115.448 416.421C89.479 402.457 66.2454 383.829 46.8859 361.45C11.5452 318.635 -7.37379 269.703 2.69112 212.668C4.37518 198.197 9.43255 184.336 17.4479 172.223C29.5658 155.433 42.7085 139.422 56.7995 124.285C62.0262 117.937 68.8373 113.116 76.5276 110.32C84.218 107.524 92.5082 106.855 100.54 108.383C115.675 91.5627 128.994 75.507 143.297 60.063C149.057 53.544 155.589 47.7664 162.746 42.8606C176.292 34.1447 190.292 26.2699 204.368 18.5479C227.827 5.62696 254.011 4.17429 280.044 1.80418C284.433 1.4219 288.974 1.80418 293.363 1.80418C328.325 -3.92997 358.823 6.6973 387.352 28.7929ZM339.374 79.5593C345.125 58.3047 364.271 48.3653 378.574 34.6798C376.833 32.6156 376.304 31.3923 375.396 30.9336C351.633 18.7772 327.493 11.2846 301.309 23.2881C296.335 25.74 291.07 27.5387 285.644 28.64C273.09 31.0353 261.495 37.0648 252.271 45.9953C241.827 55.9345 236.152 56.1639 225.103 46.7599C222.146 43.8801 218.496 41.8292 214.515 40.8102C210.533 39.7911 206.358 39.8391 202.4 40.9492C193.924 43.3193 185.524 46.2248 177.276 49.2065C158.811 55.9346 147.005 70.8433 134.14 84.7582C127.632 91.8685 121.351 99.2082 114.919 106.471C126.458 107.691 138.08 107.895 149.654 107.083C171.524 107.083 194.076 104.713 212.162 121.533L235.925 108.153C234.638 95.8442 230.022 83.7642 239.179 69.9258C241.525 83.6878 236.606 96.0735 243.644 104.331L321.741 98.9787L339.979 79.024L329.233 102.266C346.634 110.996 364.642 118.432 383.115 124.515C418.457 134.277 450.887 152.654 477.558 178.033C483.097 181.887 486.905 187.795 488.153 194.472C486.11 193.783 484.899 193.783 484.293 193.172C456.693 162.241 420.425 140.533 380.315 130.937C373.879 129.353 367.673 126.938 361.85 123.75C327.039 103.872 290.638 102.725 252.573 111.594C235.956 114.975 220.433 122.484 207.406 133.443C194.379 144.401 184.258 158.465 177.957 174.364C175.535 180.021 172.281 185.373 169.405 190.802L166.076 188.89C173.728 165.262 186.353 143.588 203.081 125.356C199.311 122.644 194.907 120.97 190.303 120.501C185.698 120.032 181.052 120.783 176.822 122.68C172.328 124.787 167.468 125.982 162.519 126.197C154.412 126.201 146.443 128.313 139.379 132.33C132.315 136.347 126.393 142.134 122.184 149.133C113.443 163.989 105.486 179.302 98.3456 195.007C86.6159 217.943 88.7348 240.88 99.4051 263.816C105.428 279.415 110.408 295.405 114.313 311.677C118.778 326.586 123.243 341.571 128.086 356.327C130.172 360.237 132.713 363.882 135.654 367.184C139.513 359.538 143.222 353.575 145.113 347.535C154.721 321.93 168.34 298.052 185.449 276.814C203.563 254.84 217.009 229.336 224.952 201.888C229.252 188.699 235.421 176.209 243.265 164.807C250.303 153.874 258.855 152.574 270.66 158.002C275.655 160.372 280.119 163.813 285.114 166.26C296.465 171.917 307.817 177.881 319.395 182.544C353.45 196 387.882 208.998 418.153 229.794C449.006 251.416 483.612 266.978 520.164 275.667C533.407 278.725 539.915 275.667 545.061 263.358C548.859 255.221 550.929 246.371 551.137 237.378C551.346 228.384 549.689 219.446 546.272 211.139C536.685 187.263 522.337 165.637 504.121 147.604C485.883 130.555 468.477 112.435 451.828 94.0857C443.813 84.0711 433.084 76.6321 420.953 72.6781C410.888 69.7728 400.52 68.1673 390.682 66.0265C385.763 65.0326 379.86 66.409 375.547 58.9928C408.92 57.0814 437.072 65.5678 460.228 88.4279C473.623 101.731 485.58 116.716 500.034 128.796C519.848 145.84 535.842 166.951 546.953 190.725C553.402 202.478 557.023 215.598 557.522 229.026C558.022 242.455 555.386 255.813 549.829 268.021C543.018 283.313 534.315 287.9 518.121 283.313C513.018 281.181 507.754 279.468 502.38 278.19C476.272 275.438 454.174 262.899 431.926 250.437C405.439 235.146 378.347 221.46 351.255 207.469C324.163 193.477 295.255 183.538 270.66 164.807C260.065 157.161 254.238 157.696 247.352 169.165C241.097 180.883 235.636 193.016 231.006 205.481C224.649 220.237 219.654 236.063 211.935 249.749C193.622 282.93 174.097 315.347 155.027 348.07C151.622 353.881 148.443 359.768 144.659 365.273C137.621 375.441 129.978 375.823 124.53 365.273C117.111 352.221 111.581 338.163 108.108 323.528C103.825 300.492 96.3611 278.179 85.9348 257.241C81.2513 247.973 78.8094 237.715 78.8094 227.309C78.8094 216.903 81.2513 206.645 85.9348 197.377C90.9798 186.316 96.2267 175.256 101.675 164.195C114.465 137.589 133.459 120.08 164.486 119.775C165.319 119.775 166.227 118.781 169.103 117.022C161.535 117.022 155.708 117.022 149.957 117.022C130.735 117.71 112.119 120.921 92.2159 117.634C77.9888 115.187 66.5617 123.98 57.859 134.53C48.4394 146.199 39.721 158.429 31.7507 171.153C23.2502 184.989 17.5375 200.385 14.9402 216.457C12.3429 232.529 12.9122 248.961 16.6155 264.81C31.7507 345.7 86.4645 393.714 159.189 418.485C225.534 441.133 296.172 447.937 365.558 438.364C449.709 427.125 515.623 388.209 558.683 312.977C568.055 297.856 576.472 282.151 583.883 265.957C595.317 237.724 598.851 206.859 594.099 176.734C588.499 136.289 572.078 100.89 537.494 78.4123C503.052 54.671 463.526 39.5257 422.163 34.2211C415.357 33.0367 408.382 33.3022 401.683 35.0007C394.985 36.6991 388.712 39.793 383.266 44.0839C368.736 55.6287 354.055 67.4028 339.374 79.1769V79.5593ZM209.816 29.7103C216.725 33.0794 223.334 37.0445 229.568 41.561C230.715 42.966 232.171 44.0809 233.82 44.817C235.469 45.5531 237.265 45.89 239.066 45.8009C240.867 45.7118 242.622 45.1991 244.192 44.3037C245.761 43.4083 247.103 42.1549 248.108 40.6433C257.49 31.0733 269.667 24.8017 282.844 22.7528C287.233 21.7589 291.471 19.8477 295.784 18.3951L294.801 15.031C266.044 14.4958 237.363 15.2603 209.816 29.3281V29.7103Z" fill="#DA923F"/>
</svg>
