<svg width="495" height="346" viewBox="0 0 495 346" fill="none" xmlns="http://www.w3.org/2000/svg">
<g clip-path="url(#clip0_89_252)">
<path d="M449.114 53.7518C464.279 57.6594 474.592 64.9971 477.581 80.2369C478.887 89.1274 481.935 97.6712 486.551 105.376C493.091 114.957 495.953 126.584 494.61 138.113C493.574 144.247 491.585 150.18 488.717 155.698C486.553 159.985 485.766 164.838 486.464 169.592C487.267 174.65 486.729 179.83 484.904 184.614C478.101 199.333 470.172 213.531 462.979 228.033C461.912 230.406 460.326 232.508 458.338 234.184C456.351 235.86 454.013 237.066 451.497 237.715C401.841 251.999 354.178 272.102 305.042 287.906C292.84 291.815 280.428 295.033 267.865 297.545C252.27 300.764 237.062 305.64 222.499 312.09C197.151 323.249 171.283 333.192 145.632 343.612C140.956 345.524 135.888 346.269 130.861 345.785C125.835 345.301 121.001 343.602 116.774 340.833C102.865 332.801 93.2891 320.47 84.1899 307.792C74.4407 294.245 64.9514 280.569 55.4622 266.892C51.9148 262.175 48.7282 257.197 45.9296 252C32.1507 224.385 13.909 199.16 2.81658 170.113C0.235342 163.672 -0.587445 156.658 0.433229 149.793C2.05292 140.918 2.66362 131.887 2.25327 122.874C0.21677 97.7345 26.3444 72.5085 48.8759 69.5126C56.762 68.4706 63.7383 66.6035 68.6346 59.8303C69.2935 59.0056 70.1021 58.3132 71.0177 57.7896C93.8525 42.8103 118.204 31.044 145.762 29.0902C165.693 27.7008 184.368 21.1447 203.78 17.8014C221.892 14.6319 239.874 11.0282 257.986 7.98888C262.731 7.01207 267.626 7.01207 272.371 7.98888C275.536 8.85474 278.841 9.07802 282.093 8.64556C285.344 8.2131 288.477 7.13368 291.306 5.47068C302.139 -0.434203 313.881 -0.260546 325.97 0.434146C332.123 0.82491 338.319 0.130186 344.516 0.130186C359.334 0.130186 374.197 -0.130323 388.972 0.130186C393.154 0.381705 397.206 1.68045 400.758 3.90755C420.819 16.6291 439.061 31.3045 449.114 53.7518ZM130.943 62.0447C126.61 63.5209 121.8 64.9103 117.294 66.3865C112.788 67.8627 108.974 69.1218 106.071 64.78C105.002 62.9569 104.566 60.8296 104.832 58.7316C105.099 56.6336 106.053 54.6835 107.545 53.1873C109.588 50.8364 111.836 48.6715 114.261 46.718L118.81 42.6801C108.019 45.7641 97.5325 49.8335 87.483 54.8372C75.9572 60.7855 65.8181 68.4706 60.4452 81.1053C56.1122 92.0033 51.2593 102.814 41.2501 110.065C36.9171 113.105 38.2168 118.054 40.5133 122.396C41.2157 122.164 41.8856 121.843 42.5066 121.441C52.9924 110.413 62.7416 112.453 68.5045 126.173C75.1773 142.021 72.4042 156.566 64.4748 170.981C59.7086 179.448 50.9127 179.665 45.0198 171.936C41.0451 165.764 39.3867 158.379 40.3401 151.096C41.2887 141.156 39.8935 131.132 36.2671 121.832C34.8188 119.205 34.2758 116.173 34.7223 113.206C35.1689 110.238 36.58 107.501 38.7369 105.419C47.4029 97.17 50.8693 86.4457 56.0688 74.5491C51.7359 75.1136 48.6594 75.3307 45.4964 76.0688C30.2443 79.7159 21.0149 91.0915 12.3923 102.945C10.6174 105.93 9.64701 109.326 9.57602 112.801C8.96941 123.134 9.5759 133.598 8.36266 143.845C7.26946 156.013 9.83488 168.231 15.7288 178.927C19.5418 186.699 23.7448 194.297 27.9045 201.895C33.234 211.664 38.4769 221.433 44.0664 231.029C51.0858 243.012 58.1486 254.908 65.7313 266.588C71.8841 276.27 78.7302 285.605 85.1864 294.897C91.6425 304.188 98.4888 313.436 105.682 322.25C109.457 326.029 113.576 329.445 117.987 332.453C117.77 316.606 117.77 316.606 121.237 310.744C121.42 315.63 121.883 320.501 122.623 325.333C124.92 335.71 132.156 339.878 141.949 335.927C168.336 325.42 194.768 314.956 220.766 303.493C235.327 297.025 250.515 292.078 266.088 288.731C279.087 286.039 291.697 282.609 304.219 278.658C320.771 273.448 336.933 267.066 353.441 261.812C383.772 252.173 412.933 238.8 444.434 232.244C447.168 231.718 449.743 230.562 451.954 228.866C454.165 227.17 455.952 224.982 457.173 222.475C463.976 208.885 471.255 195.512 478.145 181.966C478.937 179.611 479.39 177.155 479.488 174.672C474.028 176.408 469.262 177.841 464.539 179.491C459.816 181.141 455.613 182.878 451.15 184.571C453.837 180.513 457.712 177.389 462.243 175.627C470.909 173.586 474.722 167.725 477.711 160.387C478.935 157.484 480.384 154.683 482.044 152.007C486.724 144.902 488.96 136.46 488.413 127.964C487.865 119.469 484.564 111.385 479.011 104.942C471.948 96.5622 466.012 97.5608 461.679 107.808C461.062 108.894 460.351 109.926 459.556 110.89L458.516 110.456C459.253 106.114 460.033 101.772 460.726 97.691C453.792 92.9382 447.191 87.7158 440.968 82.0604C435.923 76.1185 431.332 69.8052 427.232 63.1736C422.753 64.6272 418.405 66.4572 414.233 68.6442C410.42 71.0756 407.647 75.1135 403.921 77.7186C391.182 86.4022 377.619 91.7428 361.977 85.8379C355.738 83.4933 348.978 82.9288 344.645 88.6166C342.846 91.1953 340.551 93.3877 337.895 95.0653C335.239 96.7429 332.274 97.8718 329.177 98.3857C334.16 108.806 338.796 118.402 343.606 128.388L349.455 130.211C336.846 138.895 336.803 138.678 323.457 141.24C320.446 142.061 317.538 143.227 314.791 144.713C312.625 145.712 310.458 147.058 308.378 147.969C307.728 148.23 306.689 147.535 304.999 147.014L311.498 140.675C307.586 137.654 303.853 134.407 300.319 130.949C296.85 126.973 293.595 122.814 290.57 118.488C289.393 122.124 287.945 125.665 286.237 129.082C285.807 130.137 285.154 131.085 284.323 131.861C283.492 132.637 282.502 133.223 281.422 133.579C280.342 133.934 279.198 134.05 278.069 133.918C276.941 133.786 275.854 133.41 274.884 132.816C270.032 130.602 265.092 128.475 259.719 126.087L269.035 122.005C267.389 118.662 265.742 115.71 264.442 112.584C260.274 103.302 259.778 92.7799 263.056 83.1459C265.785 75.3306 270.162 73.8545 276.054 79.3252C280.557 83.9974 284.699 89.0048 288.447 94.3044C289.4 94.3044 291.393 93.8268 293.43 93.3926C294.372 93.1817 295.298 92.906 296.203 92.5677C289.66 72.6821 308.075 58.4409 324.107 61.7842C330.919 63.0696 337.298 66.0563 342.652 70.4678C344.646 72.1177 346.682 73.6373 348.285 74.8096C358.598 66.126 349.628 54.3596 355.781 45.7193C352.575 43.4182 350.062 41.3776 347.505 39.8145C339.749 34.5175 336.716 34.9517 331.993 43.2446C330.6 46.0716 328.406 48.424 325.686 50.0072C322.965 51.5905 319.839 52.3343 316.698 52.1453C311.585 52.1453 306.515 50.5822 301.402 49.9744C298.584 49.136 295.593 49.0612 292.736 49.7573C282.502 55.2126 271.049 57.9622 259.459 57.7463C257.214 53.306 254.575 49.0773 251.573 45.1116C247.921 41.4553 243.98 38.1012 239.787 35.082C244.9 32.911 249.493 31.2612 253.826 29.1337C266.435 22.9249 278.871 17.6278 289.79 31.0874C295.461 30.1831 300.542 27.0597 303.916 22.4038C314.011 11.6795 326.837 9.37828 335.979 15.0661C348.328 13.2859 359.074 11.4189 369.907 10.4203C372.083 10.2962 374.231 10.967 375.952 12.3082C377.673 13.6494 378.85 15.5702 379.266 17.7147C373.633 17.1936 368.997 16.412 364.361 16.412C358.901 16.412 353.441 17.0634 347.982 17.3239C345.142 17.3231 342.414 18.4354 340.382 20.4231C338.35 22.4109 337.174 25.1164 337.106 27.9613C343.562 32.3031 349.455 35.9937 355.261 39.9448C357.254 41.2907 358.858 44.2866 360.851 44.2866C369.777 45.0247 374.716 51.0598 379.093 57.6594C402.794 43.4616 410.333 48.0205 418.609 60.3947C426.192 57.9199 435.551 61.046 441.574 53.4913C431.392 35.2122 415.576 22.838 399.371 10.898C395.29 8.25554 390.577 6.75635 385.722 6.55613C374.369 5.50767 362.95 5.39156 351.578 6.20885C340.234 7.08349 328.85 7.32983 317.478 6.94688C309.24 7.10027 301.078 8.56586 293.3 11.2887C286.964 14.0631 279.931 14.8209 273.151 13.4596C268.081 12.3735 262.839 12.3735 257.769 13.4596C240.741 16.6292 223.799 20.2763 206.9 23.9669C191.735 27.3101 176.569 31.0006 161.187 34.6043C161.187 46.1101 153.647 51.5809 144.765 55.7056C140.129 57.92 135.406 60.0475 130.683 62.0881L130.943 62.0447ZM305.692 123.351C314.358 127.259 319.038 137.419 330.91 135.682C329.35 126.26 323.197 119.617 318.907 111.932C328.83 114.841 329.22 126.608 337.236 131.34C335.517 121.127 330.742 111.679 323.544 104.247C317.824 98.5594 310.545 98.516 302.616 103.162C300.082 104.328 298.027 106.334 296.796 108.84C295.565 111.347 295.233 114.202 295.856 116.925C297.275 121.594 299.916 125.796 303.506 129.094C307.095 132.393 311.501 134.668 316.264 135.682L305.692 123.351ZM345.555 81.5829C340.702 74.4623 332.166 76.199 326.49 71.3795L329.307 71.0756C329.644 71.0886 329.976 70.9977 330.26 70.8151C330.26 70.8151 330.26 70.2507 330.65 69.0784C326.761 67.9805 322.791 67.1964 318.778 66.7338C315.115 66.5458 311.48 67.4579 308.338 69.3531C305.196 71.2482 302.691 74.0402 301.142 77.3713C300.076 79.0463 299.483 80.9796 299.427 82.9654C299.371 84.9512 299.853 86.9152 300.822 88.6483C301.791 90.3813 303.211 91.8186 304.931 92.807C306.651 93.7953 308.606 94.2979 310.588 94.2611C313.318 94.629 316.067 94.8464 318.821 94.9123C326.086 95.0949 333.21 92.8831 339.099 88.6166L315.225 87.0101C324.584 82.0605 335.026 87.1404 345.555 81.5394V81.5829ZM47.1429 128.822H45.3231C45.057 130.46 44.8976 132.113 44.8463 133.772C44.8463 141.674 44.8465 149.576 45.5397 157.435C45.909 161.543 47.1498 165.525 49.1793 169.114C52.3424 174.324 57.412 173.89 60.5751 168.506C69.241 153.918 67.248 139.286 60.1419 125.088C59.5268 124.174 58.6929 123.429 57.7165 122.921C56.7401 122.412 55.6524 122.157 54.5524 122.179C53.5922 122.772 52.7929 123.594 52.2259 124.571C51.659 125.548 51.342 126.65 51.3027 127.78C51.9236 131.844 52.9692 135.831 54.4223 139.677C55.5489 143.367 58.0187 146.84 55.2456 152.138C52.2558 143.541 49.6994 136.16 47.1429 128.778V128.822ZM381.476 76.72C387.759 72.3782 396.425 74.028 402.534 67.5587C383.296 58.0067 361.024 62.2617 354.871 76.2424C365.184 84.5787 374.846 84.926 392.785 76.9371L381.476 76.72ZM254.65 45.9798C258.203 48.5849 260.846 51.9716 263.879 52.4058C266.909 53.1367 270.063 53.1929 273.117 52.5702C276.172 51.9476 279.053 50.6614 281.557 48.8021C282.771 47.5713 283.71 46.0949 284.309 44.4716C284.908 42.8483 285.154 41.1154 285.031 39.3891C284.908 37.6627 284.418 35.9827 283.595 34.4612C282.772 32.9397 281.634 31.6118 280.257 30.5664C272.501 25.0957 255.993 29.9586 250.923 40.2053C253.826 39.5106 255.863 38.9461 257.942 38.6422C258.679 38.6422 259.589 39.0763 260.802 39.4671C259.026 41.1604 257.683 42.6366 254.65 45.8496V45.9798ZM326.49 16.3252C312.581 19.0172 305.389 24.3576 300.882 35.1253C298.023 41.8551 300.233 46.0234 307.469 46.7615C310.194 47.0282 312.941 46.5792 315.441 45.4589C321.681 42.5064 329.437 26.6587 328.44 19.6684C328.039 18.3871 327.375 17.2041 326.49 16.195V16.3252ZM277.181 129.69C288.49 119.878 286.843 98.9501 274.494 86.272L271.938 94.6083C270.638 89.7889 269.815 86.8798 268.428 81.7999C263.792 100.643 271.765 114.45 277.181 129.56V129.69ZM109.235 64.259C121.844 59.4396 132.373 55.5754 142.772 51.2336C145.618 49.9902 148.285 48.3692 150.701 46.4141C152.352 45.4729 153.636 43.9992 154.345 42.2331C155.053 40.467 155.143 38.5126 154.601 36.6884C143.248 35.1254 114.954 50.9296 109.235 64.1288V64.259ZM438.021 62.4354C435.985 69.8599 435.681 70.4244 440.361 74.5926C448.03 81.4527 456.22 87.6181 464.279 94.2611C465.473 94.878 466.762 95.289 468.092 95.4768C466.446 81.7566 452.017 65.9523 437.891 62.3052L438.021 62.4354ZM359.334 63.0433L373.503 57.9199C368.824 50.8427 365.357 48.6284 361.328 50.4954C355.565 53.0136 357.514 57.4424 359.334 62.9131V63.0433ZM390.055 58.962C397.638 59.9606 403.617 64.5629 411.243 61.7407C405.09 53.361 401.841 52.9703 390.228 58.8317L390.055 58.962ZM467.572 78.7607C468.395 69.1653 461.549 66.5167 454.833 63.7814L467.572 78.7607ZM290.57 110.413L297.373 97.691L288.707 99.5581C289.66 103.075 290.093 106.071 290.57 110.413ZM321.637 44.8944C329.133 41.7683 330.043 35.1254 330.78 28.439C327.92 33.9097 324.887 39.4237 321.811 44.8944H321.637ZM294.426 34.9517C289.053 37.166 290.613 40.9434 291.306 45.5023C296.549 42.463 294.08 38.2949 294.6 34.9517H294.426Z" fill="#532D15"/>
<path d="M157.851 104.421C155.814 94.7387 161.187 84.7958 165.26 74.5057C169.593 63.0867 175.876 53.9689 188.788 55.6622C193.358 48.8092 198.504 42.3598 204.17 36.3845C217.169 24.9221 234.501 31.044 238.834 47.76C239.739 50.5957 240.87 53.3543 242.214 56.0095L227.655 65.2576C224.887 64.0142 221.855 63.4784 218.83 63.6982C215.806 63.9179 212.882 64.8864 210.323 66.5167C208.026 68.0798 203.65 66.5167 199.794 66.5167C203.737 86.2721 196.674 101.859 182.029 115.275C184.758 118.141 187.835 121.18 190.695 124.437C193.596 127.691 195.645 131.616 196.658 135.86C197.671 140.104 197.617 144.533 196.501 148.751C194.606 156.936 190.393 164.399 184.368 170.243C174.446 180.359 162.703 177.885 157.287 164.903C153.648 157.361 152.264 148.925 153.302 140.612C154.34 132.299 157.755 124.465 163.137 118.054C156.681 111.368 154.081 110.934 148.925 116.969C145.042 121.875 139.84 125.566 133.932 127.606C131.073 128.626 128.448 130.212 126.215 132.271C123.981 134.33 122.185 136.819 120.933 139.59C126.041 140.745 131.031 142.373 135.839 144.453C140.073 147.449 143.992 150.867 147.538 154.656C146.238 155.264 145.155 156.219 144.028 156.262C140.877 156.39 137.836 157.465 135.302 159.346C132.768 161.228 130.856 163.829 129.816 166.813C129.136 168.614 127.962 170.185 126.428 171.345C124.895 172.505 123.065 173.207 121.15 173.369C118.711 173.447 116.359 174.298 114.434 175.801C104.945 186.438 90.3426 182.357 79.7701 189.347L78.2537 187.697L83.8865 179.969C83.3656 177.357 82.9894 174.719 82.7599 172.067C82.0713 166.841 83.1146 161.534 85.7293 156.961C88.344 152.387 92.3855 148.801 97.2322 146.754C107.273 142.203 116.404 135.862 124.183 128.04C126.662 126.212 129.302 124.614 132.069 123.264C135.492 121.007 138.829 118.619 142.165 116.187C146.758 112.844 151.264 109.414 157.851 104.421ZM188.745 153.57C190.552 148.864 190.957 143.733 189.911 138.801C188.865 133.868 186.413 129.346 182.852 125.783C176.352 119.226 167.99 119.704 163.96 127.433C160.653 133.168 158.787 139.622 158.523 146.241C158.259 152.859 159.604 159.442 162.443 165.424C165.693 172.327 169.896 173.586 176.699 170.069C183.502 166.552 185.842 159.128 188.745 153.57ZM172.929 95.6938L170.373 95.1294C169.03 83.884 176.222 74.4189 177.609 63.6946C168.943 75.9385 162.574 88.9206 164.35 104.551C164.471 105.581 164.733 106.589 165.13 107.547C165.347 108.387 165.743 109.171 166.291 109.844C166.838 110.517 167.523 111.064 168.301 111.447C169.078 111.83 169.929 112.041 170.795 112.065C171.661 112.089 172.522 111.925 173.319 111.585C191.518 106.244 199.707 81.6264 195.244 69.5561C194.829 67.8745 194.028 66.3133 192.905 64.9971C191.119 63.0788 188.816 61.7213 186.275 61.0895C185.062 61.0895 182.852 64.0853 182.159 66.0825C178.865 75.8951 175.962 85.7945 172.929 95.6938ZM121.324 147.144C116.334 145.773 111.064 145.809 106.094 147.25C101.124 148.69 96.6475 151.478 93.1591 155.307C87.093 162.08 87.1363 170.199 91.296 179.621C95.9206 178.961 100.485 177.93 104.945 176.539C110.3 174.319 115.485 171.707 120.457 168.723C122.614 167.12 124.616 165.318 126.436 163.339L118.507 161.993L133.716 153.31C133.716 152.659 133.326 152.007 133.152 151.356C127.563 152.268 121.973 152.919 116.471 154.178C110.968 155.437 106.071 157.217 100.872 158.737C106.071 150.878 114.521 150.878 121.324 147.144ZM206.207 61.5671C212.1 59.8304 216.866 56.7911 220.895 57.6161C223.393 58.2401 226.02 58.107 228.442 57.2335C230.864 56.3601 232.973 54.7856 234.501 52.7098C234.446 49.2481 233.315 45.8898 231.264 43.1034C229.214 40.317 226.346 38.2412 223.062 37.166C222.087 36.5856 220.997 36.2266 219.868 36.1142C218.739 36.0018 217.6 36.1388 216.53 36.5155C215.46 36.8922 214.485 37.4996 213.675 38.2946C212.865 39.0897 212.238 40.0531 211.84 41.117C208.149 47.2969 206.202 54.3652 206.207 61.5671ZM200.184 62.0447C202.567 54.4031 204.517 48.4982 206.467 41.6815C199.144 47.5864 194.941 53.6649 195.677 57.9633C195.937 59.3527 198.234 60.3514 200.184 62.0447Z" fill="#532D15"/>
<path d="M312.668 177.32C311.195 185.353 305.735 187.784 298.326 187.914C285.587 188.175 285.717 188.609 273.325 193.95C265.104 197.747 256.183 199.782 247.132 199.924C238.081 200.066 229.101 198.312 220.766 194.774C209.326 189.825 200.617 195.816 191.215 199.116C188.615 199.985 187.445 205.151 185.278 209.016C181.292 206.107 182.635 202.503 183.848 199.203C184.499 197.212 185.722 195.457 187.364 194.159C189.006 192.861 190.993 192.079 193.078 191.909C198.364 191.171 203.607 190.129 208.85 189.26L208.59 187.22C199.924 186.438 191.605 185.179 183.112 184.918C174.619 184.658 167.296 185.874 159.41 185.657C156.049 185.361 152.831 184.161 150.095 182.183C140.692 175.757 131.419 180.36 123.577 184.05C117.381 187.003 114.911 194.905 115.387 202.72C115.307 206.038 114.753 209.328 113.741 212.489C112.744 216.397 111.401 220.261 110.015 224.733C108.975 223.821 107.761 222.866 106.678 221.781C102.865 217.786 98.7921 216.136 94.0258 220.217C93.4332 220.862 92.6987 221.36 91.8807 221.671C91.0628 221.982 90.184 222.098 89.3136 222.01C88.4432 221.921 87.6052 221.631 86.8662 221.161C86.1273 220.692 85.5078 220.057 85.0565 219.306C81.6768 215.442 77.9505 211.881 74.5708 208.06C69.7178 202.633 65.4282 202.156 57.2388 206.324C55.3323 200.158 56.6756 197.293 62.1351 195.99C66.0826 195.386 70.1189 196.085 73.6359 197.98C77.1528 199.875 79.9598 202.864 81.6335 206.497C83.4967 210.362 85.9665 214.052 87.8297 217.786C98.5755 212.142 98.5754 212.142 107.025 214.617C108.993 212.896 110.471 210.684 111.308 208.206C112.145 205.727 112.312 203.07 111.791 200.506C111.618 199.485 111.618 198.443 111.791 197.423C114.044 178.97 116.124 178.493 130.9 175.149C139.565 173.196 147.971 171.068 155.034 179.014C156.101 179.896 157.467 180.331 158.847 180.229C165.347 180.229 171.846 179.535 178.432 179.361C188.571 179.144 192.818 171.763 196.934 164.251C197.584 163.036 197.367 161.169 198.277 160.344C205.99 153.44 206.207 142.977 210.063 134.293C215.552 122.91 225.041 113.959 236.711 109.154C244.034 105.68 250.62 110.369 249.06 118.358C247.645 124.744 245.028 130.801 241.347 136.203C236.608 142.769 231.502 149.06 226.052 155.047C237.101 157.695 248.28 159.779 259.026 163.166C269.771 166.553 276.921 172.631 275.491 186.916C277.877 183.965 281.2 181.925 284.907 181.134C288.613 180.344 292.478 180.852 295.856 182.574C303.135 185.657 307.208 179.448 312.755 177.537L312.668 177.32ZM226.658 184.701L227.308 182.878C228.782 183.312 230.212 183.833 231.641 184.224C240.611 186.525 249.58 189.173 258.679 190.91C263.012 191.735 268.082 191.996 269.988 186.351C270.768 184.017 270.72 181.485 269.851 179.183C268.983 176.881 267.348 174.95 265.222 173.717C262.734 171.877 259.989 170.414 257.076 169.375C249.883 167.03 242.56 165.033 235.411 163.079C232.379 162.413 229.251 162.31 226.182 162.775C219.206 163.73 213.919 167.768 213.183 173.065C212.61 176.177 212.991 179.389 214.275 182.28C215.559 185.17 217.685 187.604 220.375 189.26C229.876 194.397 240.903 195.938 251.443 193.602L226.658 184.701ZM236.191 116.708C230.179 118.957 224.834 122.698 220.659 127.581C216.483 132.464 213.613 138.328 212.316 144.626C212.068 145.883 212.123 147.182 212.477 148.413C212.832 149.644 213.474 150.772 214.353 151.704C215.531 152.205 216.813 152.412 218.089 152.306C219.365 152.2 220.596 151.785 221.675 151.096C231.463 143.018 238.479 132.07 241.737 119.791C238.522 120.808 235.565 122.512 233.071 124.784C230.298 127.346 227.958 130.385 225.402 133.164C222.845 135.943 222.715 139.112 217.386 139.981C222.369 129.604 229.908 123.612 236.191 116.708ZM217.602 159.085C208.936 154.743 205.124 154.743 203.477 160.474C201.126 167.151 197.254 173.187 192.168 178.102C192.168 178.362 192.471 179.318 192.948 180.967L207.55 180.49C208.677 165.684 208.676 165.684 217.602 159.085Z" fill="#532D15"/>
<path d="M426.886 123.742C426.149 126.043 425.542 128.388 424.632 130.645C420.603 141.066 416.486 142.282 407.777 135.552C405.328 133.655 402.985 131.626 400.758 129.473C398.591 127.302 396.685 125.131 394.042 121.918C393.002 124.133 392.048 125.783 391.398 127.563C390.395 130.738 388.295 133.452 385.477 135.218C382.659 136.984 379.305 137.687 376.016 137.202C370.253 136.898 364.404 136.811 358.684 136.637C350.408 123.134 351.535 110.586 361.761 102.858C371.987 95.1293 380.999 97.8647 392.092 109.805C393.85 104.426 396.008 99.1863 398.548 94.1308C404.701 83.7104 411.547 83.8841 417.613 94.6518C420.282 100.207 422.612 105.92 424.589 111.759L426.886 123.742ZM381.562 107.113C373.763 102.554 368.564 102.771 363.277 107.113C358.641 110.934 354.958 121.05 356.908 125.913C357.601 127.606 359.421 129.907 360.937 130.255C367.405 131.208 373.951 131.513 380.479 131.167C381.853 130.914 383.162 130.386 384.326 129.614C385.491 128.842 386.488 127.842 387.257 126.674C388.026 125.506 388.552 124.194 388.802 122.817C389.052 121.44 389.021 120.027 388.712 118.662C388.019 112.801 386.632 111.932 378.4 112.019C377.376 112.106 376.347 112.106 375.323 112.019C374.846 112.019 374.543 111.194 373.893 110.499L381.562 107.113ZM416.963 134.727C424.156 124.133 420.213 101.729 409.554 93.2189C407.994 101.382 406.521 109.153 404.917 117.359C398.201 109.805 404.527 102.293 404.917 94.0004C392.395 108.415 397.421 124.263 417.05 134.727H416.963Z" fill="#532D15"/>
<path d="M328.787 217.699C309.938 213.357 295.553 224.69 279.521 228.51C279.521 226.557 279.217 225.558 279.521 225.341C292.597 215.623 308.478 210.441 324.757 210.579C339.143 210.579 354.568 210.579 366.744 199.724C368.58 197.931 370.896 196.71 373.411 196.21C375.926 195.709 378.531 195.949 380.912 196.902C380.912 197.987 380.912 199.16 380.912 199.203C373.806 200.853 368.173 205.803 361.674 208.191C349.842 212.77 338.42 218.347 327.53 224.863C323.69 226.354 319.64 227.233 315.528 227.468C310.72 227.758 305.971 228.678 301.402 230.204C286.973 237.368 271.505 242.925 260.022 255.256C255.689 259.989 250.62 261.682 239.917 263.375C245.086 260.193 250.077 256.729 254.866 252.998C259.199 249.221 262.319 243.359 267.172 240.711C281.427 232.896 296.073 225.645 312.495 223.344C318.353 223.064 324.007 221.105 328.787 217.699Z" fill="#532D15"/>
<path d="M238.141 238.844C236.158 243.176 233.886 247.368 231.338 251.392C228.987 254.779 226.052 257.72 222.672 260.075C217.388 263.356 211.92 266.328 206.293 268.976C201.363 271.493 197.291 275.423 194.594 280.265C192.185 284.719 188.587 288.414 184.203 290.937C179.818 293.46 174.82 294.71 169.766 294.549C159.072 294.135 148.373 295.275 138.005 297.936C132.716 299.884 126.9 299.834 121.645 297.796C116.389 295.758 112.055 291.872 109.451 286.864C105.283 279.665 99.2098 273.759 91.9026 269.801C89.6164 268.261 87.5594 266.405 85.793 264.287C85.107 263.505 84.5377 262.628 84.103 261.682L72.2307 239.973C77.9157 243.216 82.4572 248.146 85.2297 254.084C88.0031 260.482 92.9881 265.662 99.2685 268.672C103.07 271.067 106.514 273.991 109.495 277.356C111.748 279.483 113.567 282.088 115.647 284.39C118.871 288.481 123.281 291.471 128.27 292.948C133.26 294.425 138.583 294.317 143.508 292.639C152.299 290.879 161.235 289.948 170.199 289.86C173.704 289.894 177.148 288.939 180.136 287.103C183.124 285.268 185.537 282.628 187.098 279.483C191.951 267.76 201.874 263.419 212.143 259.424C220.159 256.255 227.135 252.955 230.168 243.924C231.035 241.232 234.501 239.582 236.754 237.107L238.141 238.844Z" fill="#532D15"/>
<path d="M411.633 157.565C405.47 160.062 399.478 162.963 393.695 166.248C387.455 170.243 389.059 177.928 386.719 184.658L396.121 185.439C394.995 186.438 394.388 187.48 393.651 187.567C384.985 188.869 375.973 190.042 367.134 191.257C361.448 191.918 355.688 191.263 350.295 189.343C344.901 187.424 340.019 184.291 336.023 180.186C332.426 176.886 328.917 173.325 330.217 167.725C331.517 162.124 336.153 160.257 340.919 159.041C353.838 156.104 367.369 157.634 379.309 163.383C381.476 164.338 383.642 165.597 386.112 166.943C389.11 163.199 393.072 160.347 397.57 158.694C402.068 157.041 406.93 156.651 411.633 157.565ZM335.113 170.069C337.426 173.273 339.914 176.345 342.566 179.274C347.489 183.407 353.505 186.018 359.882 186.789C366.259 187.559 372.723 186.457 378.486 183.616C384.855 179.751 385.852 174.585 381.086 170.59C373.72 164.121 356.864 161.907 346.422 166.248L360.201 170.59C360.201 171.198 360.201 171.806 359.854 172.414L335.113 170.069Z" fill="#532D15"/>
<path d="M130.64 62.0447C132.598 62.6925 134.595 63.2145 136.619 63.6077C148.795 65.2141 155.121 76.6332 148.188 86.8365C142.404 95.5169 135.332 103.262 127.216 109.805C119.59 115.84 109.884 112.584 101.219 109.805C96.3827 108.152 92.125 105.137 88.9561 101.121C87.335 98.8553 85.0047 97.1973 82.3355 96.4107C79.6663 95.624 76.8113 95.7537 74.2241 96.7793C76.7806 92.4375 79.9869 89.7021 84.9265 91.2217C86.9173 91.7853 89.0304 91.7437 90.9975 91.1021C92.9647 90.4605 94.6974 89.2479 95.9758 87.6181C101.179 82.5829 106.646 77.829 112.354 73.3768C118.161 69.035 124.617 65.8221 130.77 62.0881L130.64 62.0447ZM132.676 69.2521C115.864 69.2521 99.7454 89.3982 104.598 104.247C116.904 108.589 127.433 107.156 135.319 95.5636C137.617 92.9786 140.062 90.5286 142.642 88.2259C144.593 86.2148 145.913 83.6742 146.436 80.9188C146.96 78.1634 146.665 75.3145 145.588 72.7255C144.028 68.8179 141.255 66.1694 136.922 68.9482L132.676 69.2521Z" fill="#532D15"/>
<path d="M426.886 123.742L424.546 111.759C423.055 106.942 423.176 101.77 424.889 97.028C426.602 92.2863 429.813 88.235 434.035 85.4905C440.578 95.4767 447.381 105.506 453.793 115.883C454.823 118.386 455.438 121.04 455.613 123.742C450.533 116.428 445.02 109.425 439.105 102.771C436.678 114.32 445.128 120.616 448.767 131.036C445.333 128.899 442.396 126.049 440.154 122.679C437.912 119.309 436.416 115.496 435.768 111.498C435.707 109.076 435.02 106.71 433.775 104.633C432.529 102.556 430.768 100.837 428.662 99.6449C429.832 110.499 430.959 121.354 437.328 130.732C438.586 132.389 440.163 133.777 441.964 134.814C450.63 140.545 454.443 138.678 455.267 128.692C455.267 126.998 455.267 125.262 455.527 123.525C460.076 132.773 460.12 137.592 455.527 141.283C452.688 143.004 449.343 143.69 446.058 143.223C442.773 142.756 439.75 141.166 437.501 138.721C433.456 134.109 429.899 129.089 426.886 123.742Z" fill="#532D15"/>
<path d="M196.804 115.015C196.587 106.331 197.714 105.333 211.103 101.772C207.29 96.9094 204.95 91.6993 208.546 85.9681C210.24 83.1292 212.548 80.7073 215.301 78.8812C218.053 77.0552 221.179 75.8715 224.448 75.4174C232.967 73.5665 241.841 74.261 249.97 77.4147C251.799 78.1746 253.455 79.297 254.84 80.7147C256.225 82.1323 257.31 83.8158 258.029 85.6642C258.636 88.139 254.779 91.7861 252.656 94.782C247.283 102.467 239.657 103.943 230.991 103.118C226.172 102.771 221.328 103.211 216.649 104.421C209.24 106.201 201.744 107.938 196.804 115.015ZM255.169 86.7061C255.103 86.0497 254.942 85.4063 254.693 84.7957C254.179 83.8895 253.43 83.1393 252.526 82.6248C242.548 78.4055 231.375 77.9886 221.112 81.4526C217.801 83.1935 215.13 85.9462 213.486 89.3113C211.406 92.9584 213.486 95.9109 217.299 97.3871C227.828 101.338 247.24 95.9977 255.169 86.7061Z" fill="#532D15"/>
<path d="M123.62 252.781C118.68 242.448 118.637 242.274 108.368 243.533C102.388 244.271 96.7556 244.532 92.4226 239.452C92.8992 238.583 93.2025 237.585 93.5059 237.585C100.612 237.585 107.718 237.281 114.781 237.585C125.916 237.628 127.563 240.624 123.62 252.781Z" fill="#532D15"/>
<path d="M312.841 177.537L315.658 171.198C317.954 175.54 315.874 176.799 312.668 177.32L312.841 177.537Z" fill="#532D15"/>
<path d="M136.749 68.9482C136.749 70.164 136.749 71.9008 136.142 72.4218C130.379 76.7636 124.4 81.1054 117.337 85.9248C120.024 76.8504 128.43 74.9834 132.676 69.339L136.749 68.9482Z" fill="#532D15"/>
<path d="M168.64 140.849C168.293 144.149 167.99 147.405 167.686 150.705L165.953 150.488L166.993 140.675L168.64 140.849Z" fill="#532D15"/>
<path d="M221.242 174.411C229.823 171.644 239.14 172.313 247.24 176.278C247.24 176.973 247.24 177.624 246.937 178.319L221.242 174.411Z" fill="#532D15"/>
<path d="M131.506 84.9695L117.9 97.4305L116.254 95.607L129.729 83.1025L131.506 84.9695Z" fill="#532D15"/>
</g>
<defs>
<clipPath id="clip0_89_252">
<rect width="495" height="346" fill="white"/>
</clipPath>
</defs>
</svg>
