<svg width="702" height="474" viewBox="0 0 702 474" fill="none" xmlns="http://www.w3.org/2000/svg">
<g clip-path="url(#clip0_64_218)">
<path d="M189.191 87.7205C200.533 63.9433 224.626 50.98 249.592 39.2257C254.897 36.6296 260.585 34.9059 266.438 34.121C286.102 32.0388 305.9 29.9566 325.631 29.4864C333.663 29.58 341.547 31.6564 348.584 35.5315C351.874 37.6054 355.718 38.6264 359.603 38.4584C363.488 38.2904 367.229 36.9414 370.329 34.5912C393.952 21.1577 417.844 7.1197 445.092 2.14931C477.652 -3.66019 511.203 3.03154 539.05 20.889C547.683 26.1094 556.651 30.754 565.895 34.7927C581.126 40.4304 593.569 51.7753 600.593 66.4285C605.905 75.696 612.013 84.4833 618.847 92.6909C622.309 96.8118 624.91 101.585 626.498 106.729C629.653 126.879 646.095 137.693 658.242 151.395C665.356 159.455 673.41 166.642 680.524 174.568C692.486 187.905 699.583 204.904 700.658 222.794C702.568 256.461 700.881 290.236 695.624 323.545C693.86 333.014 691.093 342.268 687.37 351.151C683.141 362.166 678.376 372.98 673.276 383.593C662.472 406.184 643.167 423.572 619.585 431.953C598.743 438.974 578.536 447.76 559.184 458.216C546.567 465.671 531.936 464.395 518.245 461.574C501.98 457.524 484.811 459.306 469.723 466.612C465.516 468.803 460.984 470.3 456.3 471.045C402.61 477.761 350.598 473.731 301.941 447.469C290.263 441.155 277.579 436.655 265.297 431.483C260.868 429.602 256.035 428.461 251.874 426.244C246.88 424.121 242.502 420.773 239.143 416.508C235.784 412.243 233.553 407.2 232.657 401.845C231.761 396.489 232.227 390.994 234.014 385.867C235.802 380.739 238.851 376.146 242.881 372.51C257.098 357.684 275.304 347.302 295.296 342.621C307.846 339.665 320.598 337.717 333.282 335.904C341.226 335.236 348.673 331.76 354.289 326.097C321.403 326.904 296.773 309.104 272.679 294.797C260.935 292.782 250.733 290.902 240.465 289.357C236.332 288.764 232.148 288.607 227.982 288.887C216.439 289.76 204.895 290.969 191.271 292.178C191.271 292.917 189.594 296.208 188.587 299.566C184.769 313.128 176.901 325.197 166.037 334.158C149.393 347.591 134.83 363.442 115.233 373.383C108.5 377.316 100.896 379.51 93.1046 379.768C85.3134 380.026 77.5802 378.34 70.6027 374.861C39.5966 359.345 14.9664 338.523 10.8725 300.977C9.21643 288.742 6.59046 276.659 3.02003 264.841C-0.776492 252.112 -1.21408 238.617 1.74979 225.669C4.71366 212.721 10.9781 200.762 19.9326 190.957C29.8564 179.829 38.6887 167.773 46.3079 154.955C56.6433 136.954 74.6295 125.872 93.2868 116.737C108.942 108.461 125.182 101.345 141.876 95.4448C157.445 91.7511 173.256 89.1698 189.191 87.7205ZM614.552 393.869C612.203 387.959 609.787 382.115 607.841 376.204C601.95 357.552 589.02 341.936 571.801 332.68C553.281 322.869 532.193 318.999 511.4 321.597C504.541 323.142 497.81 325.207 491.266 327.777C505.494 335.501 518.648 338.456 526.03 353.3C523.31 352.843 520.667 352.006 518.178 350.815C504.084 339.8 487.776 338.591 470.864 339.531C459.589 340.203 448.381 341.009 437.307 341.21C426.234 341.412 416.032 341.21 405.361 340.74C391.939 340.74 377.308 336.777 365.631 340.74C346.769 346.667 327.369 350.717 307.712 352.83C287.092 354.764 267.94 364.347 254.022 379.697C241.472 394.339 243.821 407.773 261.27 415.632C264.156 416.975 267.378 417.714 270.33 418.923C283.216 424.162 296.437 428.595 308.786 434.841C351.791 456.02 399.92 464.545 447.575 459.425C452.908 458.865 458.171 457.763 463.28 456.133C476.098 452.372 488.85 448.476 501.534 444.312C517.171 439.207 534.017 437.595 547.305 426.042C551.869 421.945 559.721 421.542 566.029 419.326L566.835 421.878L517.037 449.551C531.601 452.238 545.225 453.783 558.983 446.058C572.741 438.334 585.828 432.625 599.25 426.378C614.351 419.662 615.492 418.654 615.156 402.668C615.156 399.444 615.156 395.952 614.753 393.063L621.465 416.975C637.209 410.341 650.293 398.641 658.645 383.727C668.11 365.314 676.274 346.259 683.074 326.702C686.637 318.331 687.229 308.992 684.752 300.238C672.806 272.498 654.753 249.258 624.351 239.787C613.747 236.631 602.136 237.034 591.264 234.481C580.712 232.329 569.742 233.871 560.191 238.847C553.479 241.937 546.768 245.564 539.654 247.982C523.673 253.556 509.118 262.593 497.03 274.448C484.941 286.302 475.617 300.682 469.723 316.56C468.746 319.899 468.05 323.314 467.642 326.769C471.21 328.407 475.184 328.944 479.057 328.31C482.931 327.676 486.527 325.9 489.387 323.209C494.538 319.427 500.523 316.939 506.836 315.955C522.664 312.916 538.993 313.768 554.419 318.44C571.731 321.877 587.267 331.338 598.274 345.145C609.281 358.952 615.048 376.213 614.552 393.869ZM462.542 129.23L463.75 130.305C457.038 138.163 451.401 146.492 444.354 153.746C424.22 173.896 417.509 201.099 406.301 225.884C398.711 243.075 392.713 260.927 388.382 279.215C386.089 291.228 385.21 303.469 385.765 315.687C385.765 324.485 390.999 328.113 400.865 324.956C399.295 301.442 403.081 277.878 411.938 256.042C424.019 224.54 437.106 205.734 449.924 200.427C432.14 228.436 416.368 257.117 410.328 289.827C408.761 299.325 408.333 308.975 409.053 318.575C409.053 322.135 412.677 327.911 415.764 328.448C423.159 329.724 430.718 329.724 438.112 328.448C442.139 327.777 445.562 323.881 448.918 321.732L455.629 328.448C457.708 326.348 459.636 324.103 461.4 321.732C462.259 319.786 462.999 317.789 463.615 315.754C473.615 295.603 483.749 275.453 502.809 261.55C516.321 252.119 531.038 244.551 546.567 239.049C563.519 232.627 581.529 229.46 599.653 229.712C613.109 229.473 626.448 232.243 638.697 237.821C650.947 243.399 661.797 251.643 670.457 261.953C675.692 267.662 681.061 273.17 687.839 280.357C687.839 265.042 687.839 252.818 687.839 240.593C688.085 232.196 685.946 223.901 681.669 216.672C677.392 209.444 671.154 203.578 663.679 199.756C646.41 189.643 626.808 184.207 606.802 183.983C586.796 183.759 567.076 188.755 549.587 198.48C530.795 208.219 514.688 223.197 497.776 236.429C493.101 240.834 488.956 245.77 485.427 251.139C479.454 258.729 473.749 266.52 467.709 274.043C465.992 275.895 464.105 277.582 462.072 279.08C476.501 253.355 490.259 227.563 517.037 212.92C521.262 210.519 525.144 207.559 528.58 204.122C559.922 173.896 632.068 167.583 672.873 198.144C675.715 199.994 678.649 201.698 681.665 203.248C679.95 196.247 676.335 189.857 671.219 184.783C666.102 179.71 659.683 176.151 652.672 174.501C639.06 171.859 625.298 170.065 611.465 169.127C605.586 168.792 599.693 168.792 593.814 169.127H575.694V165.702C600.595 161.234 626.092 161.234 650.994 165.702L630.86 141.253C625.833 135.255 619.617 130.368 612.605 126.899C605.592 123.431 597.937 121.457 590.123 121.103C575.095 119.615 559.935 121.925 546.03 127.819C521.534 138.163 495.494 145.552 475.695 164.963C488.447 143.402 510.661 134.603 531.064 123.991C544.069 116.849 558.419 112.497 573.198 111.214C587.977 109.93 602.861 111.742 616.901 116.535C610.727 84.5637 584.284 84.2278 562.137 76.6379L583.546 77.7798C571.544 70.6147 558.121 66.167 544.218 64.7493C534.736 62.8849 524.952 63.2491 515.635 65.8133C506.318 68.3776 497.723 73.0717 490.528 79.5261C478.716 89.6684 467.105 100.079 456.166 111.162C422.609 145.216 395.16 183.3 380.865 229.511C375.392 246.93 370.91 264.646 367.443 282.573C366.07 292.106 366.07 301.787 367.443 311.321C367.245 314.325 368.094 317.304 369.843 319.753C371.593 322.202 374.136 323.969 377.04 324.754C376.466 315.046 376.466 305.312 377.04 295.603C382.409 250.333 403.885 210.973 425.294 172.083C434.757 155.425 450.059 143.134 462.542 129.23ZM342.879 313.268C343.953 299.835 340.531 289.29 346.369 275.991C348.517 289.424 344.826 300.91 355.497 311.052C355.341 302.432 356.016 293.817 357.51 285.327C365.899 256.512 374.288 227.697 384.355 199.487C394.154 172.62 414.354 151.395 431.334 128.558C446.839 107.902 465.449 89.7761 486.501 74.8244C496.65 66.8323 508.538 61.3475 521.202 58.8151C533.865 56.2826 546.947 56.7739 559.385 60.2491C567.439 62.3984 575.559 64.2119 585.626 66.63C581.2 58.5084 574.079 52.1891 565.492 48.7635C552.07 41.5094 538.648 33.7851 524.554 26.7997C490.259 9.40338 455.562 4.43301 420.194 24.2474C413.596 27.8235 406.73 30.8777 399.657 33.3821C394.997 34.6414 390.707 37 387.145 40.2606C383.584 43.5211 380.855 47.5885 379.187 52.1218C377.514 56.6593 374.665 60.6696 370.933 63.7418C359.831 73.9559 350.985 86.3786 344.96 100.214C335.229 120.364 324.155 139.104 318.652 161.672C313.82 181.822 306.907 201.569 301.135 221.585C296.604 239.798 294.951 258.609 296.236 277.334C295.89 281.898 297.004 286.454 299.417 290.342C301.83 294.231 305.417 297.25 309.659 298.962C314.558 301.044 318.853 304.537 323.752 306.619C328.652 308.701 335.229 310.85 342.879 313.268ZM234.492 185.651C240.261 192.464 244.566 200.394 247.141 208.944C249.716 217.495 250.505 226.485 249.458 235.354C249.298 247.149 250.242 258.932 252.277 270.55C253.15 277.267 256.035 283.178 264.022 280.357C270.33 248.183 274.29 216.01 283.283 185.382C292.276 154.754 302.075 123.789 323.551 98.5345C323.184 103.795 321.913 108.954 319.793 113.781C311.269 136.954 302.142 159.858 294.424 183.3C285.64 210.945 280.716 239.674 279.793 268.669C279.793 277.468 280.532 285.596 292.478 290.432C291.629 272.526 291.764 254.588 292.88 236.698C294.864 219.11 298.758 201.79 304.491 185.046C309.994 168.859 314.222 152.268 319.86 136.282C326.403 119.845 334.754 104.189 344.759 89.6012C353.819 75.2945 364.892 62.1298 374.691 48.4276L371.201 45.5394L339.725 78.1828L336.906 76.4364L348.987 51.2486C344.442 47.9776 339.266 45.6909 333.788 44.5344C328.311 43.3779 322.653 43.377 317.175 44.5319C309.748 45.6694 302.266 46.4093 294.76 46.7484C274.402 47.1948 254.412 52.2709 236.304 61.5924C215.432 71.5332 214.224 86.6458 216.17 103.774C217.534 115.408 218.095 127.123 217.848 138.835C217.513 154.888 215.567 170.941 215.567 186.994C215.021 193.917 216.869 200.817 220.801 206.54C231.875 218.025 234.224 231.593 235.096 246.303C234.963 255.411 238.216 264.244 244.223 271.087C240.801 240.123 248.452 211.913 234.492 185.651ZM38.7913 272.968C39.8651 290.835 40.2005 305.679 55.368 315.284C59.7273 319.202 63.009 324.174 64.8983 329.724C67.9183 335.971 69.7304 342.755 72.482 349.203C79.1933 364.987 90.6696 369.353 106.038 361.83C131.407 349.27 151.205 329.725 169.863 308.903C172.574 305.566 174.831 301.885 176.574 297.954C184.963 281.566 183.285 273.102 168.654 261.885C148.521 246.504 129.058 230.854 108.79 215.943C102.257 210.774 94.5975 207.222 86.4338 205.576C78.2702 203.931 69.8336 204.238 61.8109 206.472C49.0595 210.032 45.0326 216.615 44.8984 229.914C44.5803 238.921 43.6613 247.896 42.1469 256.781C40.9389 263.229 39.2611 269.408 38.7913 272.968ZM223.419 273.841C215.303 262.719 207.819 251.147 201.003 239.183C195.989 230.412 193.373 220.473 193.419 210.368C196.439 173.359 178.99 139.104 182.547 102.9C171.952 100.664 160.919 101.888 151.071 106.393C133.622 114.52 115.904 122.245 98.5886 130.64C88.9066 134.802 80.3165 141.147 73.4885 149.179C96.7095 148.037 109.998 158.985 119.729 175.441C115.829 173.282 112.314 170.491 109.327 167.18C98.4546 155.157 84.7634 153.007 69.663 155.157C66.5983 155.168 63.6438 156.301 61.3567 158.343C59.0695 160.385 57.6078 163.193 57.2473 166.239C68.063 166.719 78.6124 169.75 88.0359 175.084C97.4594 180.418 105.491 187.905 111.475 196.935C123.422 212.712 137.571 226.691 153.487 238.444C165.836 247.579 178.923 255.773 188.184 269.072C195.03 279.215 208.385 280.021 223.15 273.908L223.419 273.841ZM109.327 205.062C100.51 191.055 87.3936 180.285 71.945 174.366C63.2875 171.814 55.0998 171.344 48.5899 179.404C46.7036 181.272 44.6094 182.917 42.3485 184.307C32.4824 191.785 24.7362 201.71 19.8752 213.1C15.0143 224.491 13.2066 236.954 14.6308 249.258C17.7228 270.442 22.2067 291.399 28.0534 311.992C32.7513 332.143 48.1872 343.225 65.7708 354.509C60.3346 333.083 56.979 327.642 45.6369 315.351C40.948 310.319 37.6816 304.13 36.1738 297.417C33.0648 283.23 33.4567 268.499 37.315 254.497C39.2887 246.827 39.8572 238.862 38.9928 230.988C37.919 216.883 42.8182 205.868 55.771 201.838C64.4979 199.403 73.5836 198.516 82.6161 199.218C91.4968 200.538 100.268 202.514 108.857 205.129L109.327 205.062ZM209.996 81.6755C208.151 83.1996 206.403 84.8372 204.761 86.5787C191.339 102.296 190.533 121.103 193.956 139.842C198.917 163.957 200.9 188.59 199.862 213.189C198.386 235.22 214.358 249.258 229.727 262.826C230.24 253.208 229.655 243.563 227.982 234.078C227.697 228.221 225.715 222.573 222.278 217.824C208.386 204.726 208.05 188.807 209.795 171.814C211.405 155.828 213.352 139.842 213.553 123.857C213.284 110.557 211.204 97.2583 209.795 81.7426L209.996 81.6755Z" fill="#DA923F"/>
<path d="M544.419 79.1902L502.675 100.146C507.203 93.314 513.438 87.7853 520.761 84.1093C528.083 80.4332 536.239 78.7374 544.419 79.1902Z" fill="#DA923F"/>
<path d="M462.542 129.23L474.555 113.714L477.709 116.267L463.682 130.305L462.542 129.23Z" fill="#DA923F"/>
</g>
<defs>
<clipPath id="clip0_64_218">
<rect width="702" height="474" fill="white"/>
</clipPath>
</defs>
</svg>
