<svg width="195" height="195" viewBox="0 0 195 195" fill="none" xmlns="http://www.w3.org/2000/svg">
<g clip-path="url(#clip0_177_36)">
<path d="M125.21 23.3936C141.623 17.2252 155.149 22.4309 167.283 33.282C170.537 35.9989 172.632 39.8539 173.143 44.0619C173.45 46.1984 174.125 48.2655 175.139 50.1708C176.697 53.3314 177.125 56.9305 176.352 60.3683C174.648 68.6789 171.377 76.5889 166.713 83.6751C158.471 95.9619 148.738 107.18 137.737 117.072C130.855 123.478 124.437 130.372 117.782 137.027C112.172 142.637 106.693 148.378 100.786 153.643C97.4548 156.56 93.7594 159.033 89.7922 161C83.1191 164.468 76.2677 167.583 69.2665 170.33C60.3764 173.729 51.1179 173.574 41.8356 171.803C38.2138 171.186 34.8992 169.384 32.4107 166.681C27.5378 161.166 23.8653 155.022 23.1046 147.463C22.1739 138.861 23.4969 130.166 26.9435 122.23C28.2865 119.152 29.5345 116.026 30.8775 112.948C31.548 111.186 32.3837 109.49 33.3734 107.885C39.0307 99.7319 44.1413 91.2221 50.8802 83.8177C63.7518 69.6387 78.2042 57.2068 92.5852 44.7037C94.8077 42.7664 97.054 40.8529 99.2408 38.8562C106.934 32.2331 115.721 27.0007 125.21 23.3936ZM142.122 101.562C142.004 101.443 141.813 101.372 141.647 101.277C143.332 98.3842 145.21 95.6087 147.269 92.9693C151.118 88.3241 155.331 83.9922 159.867 80.0145C165.061 75.5198 168.894 69.6614 170.932 63.1019C172.525 58.6806 173.582 54.3663 171.241 49.8618C170.995 49.0987 170.843 48.3085 170.789 47.5086C169.518 41.4828 166.808 36.3959 161.602 32.9255C159.011 31.214 156.42 29.5501 153.734 28.005C141.219 20.8383 124.663 24.7961 114.276 33.2108C117.413 32.569 120.527 31.7132 123.57 30.8337C126.488 29.8422 129.481 29.0831 132.519 28.5636C141.148 27.6841 149.158 30.703 157.252 32.9968C158.549 33.374 159.774 33.9644 160.877 34.7439C161.633 35.4534 162.285 36.2656 162.814 37.1566C159.606 39.0582 156.694 38.5234 153.782 38.2738C149.028 37.8222 144.107 36.6575 139.662 39.4624C135.217 42.2672 130.13 42.8377 124.937 42.7545C119.817 42.6046 114.719 43.4899 109.949 45.3574C107.299 46.6792 104.524 47.7342 101.665 48.5069C98.4794 48.9895 95.4554 50.2285 92.8466 52.12C91.8958 52.8093 90.6598 53.1421 89.6733 53.7007C87.6464 54.68 85.7266 55.8669 83.9447 57.2425C72.7325 67.088 62.09 77.5639 52.0687 88.6193C51.4507 89.2373 50.9753 90.0217 50.4405 90.723C56.074 88.0131 61.6838 85.6361 66.4735 81.5357C71.5706 76.8456 77.9921 73.8444 84.8598 72.9428C89.7715 72.3082 94.6163 71.2342 99.3359 69.7338C105.148 68.1055 111.102 67.024 116.855 65.2174C121.228 63.7985 125.95 63.878 130.273 65.4433C132.567 66.2158 134.837 67.0834 137.214 67.6301C139.165 68.0904 141.147 68.4042 143.145 68.569C148.445 69.1157 153.841 69.401 159.166 69.9715C160.503 70.3349 161.786 70.8744 162.981 71.5759C162.372 72.3559 161.669 73.0584 160.889 73.6677C156.528 75.7476 151.913 77.2461 147.162 78.1247C144.659 78.6029 142.183 79.2138 139.745 79.955C134.128 81.8314 128.19 82.555 122.286 82.0825C117.475 81.6287 112.641 81.4541 107.81 81.5595C105.543 81.7344 103.301 82.1446 101.119 82.7837C97.2085 83.6275 93.322 84.8992 89.3524 85.3984C83.0948 86.286 77.0269 88.2015 71.3939 91.0676C62.0166 95.691 52.4847 100.088 42.8815 104.296C41.7457 104.668 40.6958 105.263 39.7937 106.047C38.8915 106.831 38.1552 107.787 37.6283 108.86C34.6808 115.634 31.6144 122.361 28.964 129.243C27.9413 132.166 27.337 135.219 27.1694 138.311C26.5394 145.644 27.1575 152.728 31.5312 159.146C35.0849 164.363 39.4943 167.822 45.9241 168.262C47.3979 168.38 48.8597 168.63 50.286 168.654C59.7703 169.082 68.7674 167.691 76.6591 161.749C79.3689 159.704 82.2689 158.04 85.1213 156.281C87.225 154.986 89.4237 153.809 91.5631 152.573L92.0504 153.061L89.0553 156.697C92.7515 155.328 96.0911 153.143 98.8249 150.303C104.767 144.361 110.615 138.513 116.498 132.63C123.439 125.689 130.095 118.463 137.202 111.712C147.031 102.731 155.869 92.7222 163.563 81.8566C165.175 79.6206 166.557 77.2275 167.687 74.7137C165.893 76.2706 164.3 77.887 162.731 79.5271L158.845 83.6038C156.385 86.064 154.222 88.8213 151.595 91.0914C149.156 92.982 147.092 95.3119 145.51 97.961C144.558 99.3171 143.408 100.523 142.099 101.538L142.122 101.562ZM43.4163 101.978C46.1143 100.35 48.729 98.5434 51.5339 97.1172C57.7498 93.9438 64.1084 91.0319 70.3124 87.8467C75.9147 84.9173 81.9625 82.9335 88.2115 81.9755C91.9077 81.4169 95.4852 80.1214 99.1339 79.3013C102.221 78.4592 105.374 77.8826 108.559 77.578C112.329 77.3542 116.113 77.5576 119.838 78.1841C126.471 79.4889 133.335 78.9547 139.686 76.6391C140.847 76.3097 142.037 76.0909 143.24 75.9854C146.805 75.3674 150.383 74.8563 153.924 74.1194C155.597 73.6558 157.237 73.0801 158.833 72.3961C154.474 71.1833 150.001 70.4226 145.486 70.126C138.402 69.6981 131.295 69.5793 124.188 69.3653C122.989 69.3778 121.793 69.4851 120.61 69.6862C118.103 70.0309 115.607 70.5776 113.075 70.7797C106.134 71.3502 99.1101 71.4096 92.5139 74.1313C91.645 74.4982 90.7116 74.6881 89.7684 74.6899C81.0447 74.6423 74.2107 79.1706 67.4362 83.8771C64.4887 85.9451 61.4461 87.918 58.3797 89.8197C56.5494 90.9369 54.5646 91.7807 52.7105 92.8742C48.8797 95.0572 45.6781 98.1933 43.4163 101.978V101.978ZM158.928 36.3841C156.082 34.1533 152.644 32.8062 149.04 32.5095C146.895 32.3657 144.765 32.0558 142.669 31.5825C137.392 30.0374 132.329 30.9644 127.23 32.3312C123.082 33.4365 118.911 34.4943 114.703 35.2074C107.156 36.4791 101.82 40.9598 97.1253 46.6291C99.5263 46.3895 101.894 45.8874 104.185 45.1316C110.282 43.123 116.082 40.0804 122.631 39.807C128.145 39.6065 133.556 38.2457 138.509 35.8135C141.294 34.4238 144.479 34.0578 147.506 34.7796C151.238 35.564 155.077 35.8374 158.869 36.3484L158.928 36.3841ZM116.011 68.4858C118.181 68.0044 120.381 67.663 122.595 67.4637C124.829 67.5321 127.056 67.7425 129.263 68.0936C127.249 66.8532 124.918 66.2263 122.554 66.2897C120.19 66.353 117.896 67.1038 115.951 68.4502L116.011 68.4858Z" fill="#282828"/>
<path d="M32.91 129.267C33.3461 128.354 33.8716 127.486 34.4788 126.676C36.7251 124.168 38.9358 121.625 41.4079 119.343C45.841 115.266 50.2742 111.142 55.0401 107.47C57.7547 105.511 60.7691 104.006 63.9659 103.013C68.4399 101.556 73.0112 100.416 77.6457 99.6018C81.8736 98.9432 86.1352 98.5226 90.4103 98.342C94.6768 97.9461 98.965 97.835 103.246 98.0092C107.333 98.5844 111.479 98.6044 115.571 98.0686C117.974 97.8509 120.395 97.9468 122.774 98.3538C124.354 98.4846 125.935 98.6391 127.492 98.8887C129.049 99.1382 131.022 99.5661 132.947 99.9465C132.65 100.838 132.638 101.396 132.412 101.527C128.387 103.619 124.358 105.683 120.325 107.719C117.449 109.169 114.454 110.405 111.72 112.069C108.635 114.001 105.176 115.256 101.57 115.754C93.857 116.788 86.1554 117.976 78.3707 118.701C72.0916 119.375 65.8984 120.693 59.8893 122.635C59.5089 122.754 59.1286 122.92 58.7364 123.004C51.5342 124.552 44.4706 126.686 37.6165 129.386C36.2595 129.792 34.8726 130.09 33.4686 130.277L32.91 129.267ZM127.064 102.193L126.767 101.634C125.836 101.613 124.911 101.485 124.01 101.254C119.908 99.9332 115.542 99.6515 111.304 100.434C105.73 101.087 100.085 101.242 94.4869 101.658C93.0132 101.753 91.5632 101.967 90.1013 102.193C87.237 102.68 84.3489 103.191 81.4608 103.702C80.1365 103.909 78.8235 104.183 77.5268 104.522C71.1326 106.162 64.8216 107.862 58.5225 109.74C56.6563 110.392 54.9068 111.339 53.3406 112.545C51.0348 114.161 48.9312 116.027 46.7205 117.81C43.7968 120.163 40.8255 122.469 37.9612 124.881C37.3138 125.575 36.7658 126.355 36.3329 127.199C38.6787 126.818 40.9643 126.131 43.1312 125.155C45.3212 124.18 47.6078 123.439 49.9533 122.944C54.5929 122.224 59.1297 120.951 63.4667 119.153C67.5447 117.388 71.8001 116.065 76.16 115.207C84.8956 113.769 93.7382 112.961 102.509 111.748C104.618 111.403 106.68 110.817 108.654 110.001C113.028 108.314 117.342 106.471 121.668 104.665C123.439 103.797 125.198 102.942 127.088 102.169L127.064 102.193ZM89.3525 100.612C85.7276 98.4846 82.6493 100.683 79.4166 101.373C76.1838 102.062 72.6896 103.084 69.2904 103.821C62.0048 105.426 61.9811 105.402 60.3409 107.517C65.1544 106.198 69.8966 104.784 74.6982 103.643C79.4998 102.502 84.4559 101.61 89.3525 100.612ZM100.025 100.137C100.216 99.9465 100.346 99.8157 100.299 99.6969C100.251 99.578 100.109 99.5067 100.061 99.4592C99.3242 99.4354 98.6111 99.4354 97.8861 99.4235L97.9217 99.9583L100.025 100.137Z" fill="#282828"/>
<path d="M125.531 117.869C124.521 121.09 106.812 139.869 102.771 141.794C102.676 139.512 104.233 138.502 105.504 137.159C108.155 134.342 110.77 131.49 113.563 128.815C117.497 125.072 121.561 121.482 125.531 117.869Z" fill="#282828"/>
<path d="M142.099 101.539L138.771 105.865L138.082 105.342C138.882 103.692 140.104 102.282 141.623 101.254C141.79 101.349 141.944 101.456 142.099 101.539Z" fill="#282828"/>
</g>
<defs>
<clipPath id="clip0_177_36">
<rect width="189.747" height="85.3349" fill="white" transform="translate(0 134.318) rotate(-45)"/>
</clipPath>
</defs>
</svg>
