<svg width="1079" height="823" viewBox="0 0 1079 823" fill="none" xmlns="http://www.w3.org/2000/svg">
<path d="M467.671 60.7709C485.224 56.7845 500.746 53.6841 516.123 49.9929C564.789 38.8433 615.282 38.8433 663.948 49.9929C726.05 64.4006 786.314 86.0504 843.542 114.513C917.526 149.505 970.912 207.086 1014.72 275.15C1022.99 287.995 1029.23 301.874 1038.22 314.424C1092.91 394.89 1086.1 479.047 1051.71 563.942C1037.21 598.786 1019.51 631.711 982.227 648.69C972.243 654.691 963.871 663.11 957.855 673.199C914.335 735.505 851.086 765.329 782.614 787.033C756.066 795.301 729.373 803.716 702.391 810.065C678.942 816.39 654.938 820.346 630.727 821.877C488.644 825.912 347.865 793.305 221.49 727.089C143.374 686.915 77.0673 626.46 29.2752 551.836C19.4507 535.884 12.4769 518.289 8.67579 499.865C-8.00148 433.822 -0.471897 363.858 29.856 303.055C49.5853 264.52 66.2679 224.361 85.8521 185.826C105.19 151.931 135.419 125.859 171.443 112.003C221.781 88.8233 271.249 63.4287 321.733 40.3962C352.197 26.5176 383.677 14.2629 415.302 3.04198C439.963 -5.81667 457.661 6.2902 463.174 33.3091C464.77 40.9866 465.785 48.9594 467.671 60.7709ZM913.465 526.884C945.234 509.166 960.467 479.342 971.492 447.451C988.17 405.754 993.191 360.173 985.999 315.752C974.248 254.037 933.049 209.892 892.575 166.041H890.399C910.419 209.006 931.599 251.675 950.167 295.673C973.958 351.925 961.773 448.485 881.405 474.765C844.687 485.745 808.848 499.565 774.2 516.105C750.604 528.962 724.439 536.176 697.694 537.2C670.948 538.223 644.325 533.029 619.847 522.011C525.553 482.147 431.259 442.431 337.98 400.5C309.55 387.14 282.809 370.335 258.338 350.449C243.634 340.512 232.167 326.347 225.398 309.756C218.63 293.165 216.866 274.9 220.33 257.285C232.081 204.133 257.323 158.364 306.501 130.016C341.897 109.641 375.698 86.6086 416.172 77.1594C422.912 75.354 429.362 72.5694 435.321 68.8914C440.678 64.4245 444.404 58.2558 445.904 51.3749C447.403 44.4939 446.588 37.2999 443.589 30.9469C436.771 16.1825 425.746 18.3971 414.576 23.7123C352.342 52.06 289.962 80.1124 227.873 108.903C206.524 118.228 185.828 129.031 165.93 141.237C150.893 150.021 137.725 161.766 127.196 175.786C87.1573 235.877 65.9779 305.122 42.4769 372.891C38.3241 388.871 36.5155 405.389 37.1094 421.909C34.7883 492.63 64.3824 549.473 111.675 599.082C164.183 652.637 227.837 693.506 297.941 718.673C397.805 757.478 503.539 778.311 610.417 780.241C635.829 779.97 661.15 777.102 685.998 771.678C718.929 765.034 751.279 755.437 784.064 747.169C849.635 730.78 908.677 703.909 951.472 647.066C965.595 631.622 980.821 617.261 997.024 604.102C1005.03 597.412 1011.59 589.12 1016.32 579.74C1051.86 490.416 1070.28 400.943 1015.45 311.618C1010.66 303.646 1007.61 294.639 1002.97 286.371C999.467 280.545 995.641 274.925 991.511 269.54C1038.95 392.38 1008.48 500.751 913.465 526.884ZM704.857 80.703V76.5689C684.837 73.4684 664.819 69.3343 644.799 67.7102C613.968 63.7159 582.844 62.5794 551.81 64.3144C515.041 69.5131 478.75 77.7594 443.3 88.971C412.255 97.8297 380.775 106.541 356.259 129.868C334.064 150.834 327.245 170.175 336.965 199.409C342.538 218.812 354.466 235.692 370.766 247.246C397.603 265.849 422.7 286.962 450.117 304.679C469.236 317.881 490.09 328.269 512.062 335.537C555.83 347.316 597.46 366.158 635.37 391.346C658.388 407.85 686.654 414.963 714.577 411.278C772.078 402.717 826.765 380.403 874.152 346.167C881.556 340.669 886.964 332.829 889.529 323.873C894.462 304.436 898.24 284.714 900.844 264.815C903.027 251.873 902.501 238.608 899.301 225.887C896.102 213.166 890.3 201.276 882.276 190.993C861.16 162.605 833.823 139.627 802.442 123.889C771.061 108.151 736.503 100.087 701.521 100.34C655.198 100.576 608.932 103.682 562.981 109.641C554.107 109.228 545.402 112.212 538.582 118.005C531.762 123.799 527.32 131.982 526.133 140.942C523.667 158.659 532.081 168.404 555.147 178C585.176 190.107 614.479 204.576 644.944 215.502C668.844 224.203 693.458 230.725 718.493 234.991C729.895 236.085 741.329 233.279 750.988 227.018C764.985 217.336 778.271 206.628 790.738 194.979C780.034 174.426 762.992 158.019 742.234 148.283C721.476 138.546 698.15 136.019 675.843 141.089C665.688 142.713 653.648 143.452 653.213 157.921C652.777 172.39 664.383 177.41 676.568 178.148C688.754 178.886 698.619 178.148 714.432 177.41C697.169 200.295 678.164 196.604 661.482 192.174C639.576 185.678 617.236 177.41 612.159 148.914C624.027 134.075 641.188 124.626 659.886 122.634C693.107 115.675 727.626 119.281 758.765 132.961C789.904 146.642 816.158 169.736 833.968 199.114C861.385 239.421 853.552 278.546 811.627 303.35C766.221 330.222 718.494 328.45 670.186 316.195C635.134 308.141 600.593 297.935 566.753 285.633C537.401 274.312 509.492 259.441 483.628 241.34C442.429 211.811 444.025 163.679 483.628 131.05C516.809 102.78 559.042 87.9097 602.294 89.2663C636.609 88.3112 670.847 85.4524 704.857 80.703ZM313.173 176.967L306.356 173.866C296.858 186.681 288.091 200.04 280.098 213.878C268.294 233.88 264.72 257.814 270.152 280.482C275.585 303.15 289.585 322.722 309.112 334.946C322.303 344.596 336.394 352.904 351.181 359.75C400.359 383.373 449.683 407.144 499.731 428.848C549.78 450.552 601.278 470.188 651.181 490.563C666.316 496.612 682.532 499.357 698.776 498.619C715.02 497.882 730.93 493.678 745.476 486.281C774.797 472.31 805.349 461.188 836.724 453.062C894.751 439.183 918.832 395.628 933.339 343.805C935.733 334.111 935.755 323.968 933.403 314.264C931.051 304.56 926.396 295.591 919.848 288.143C917.381 302.907 915.06 311.323 914.48 320.477C914.206 330.121 911.141 339.468 905.67 347.347C900.199 355.226 892.566 361.287 883.726 364.77C841.214 385.991 797.354 404.291 752.44 419.546C703.261 434.311 660.031 431.505 617.091 401.681C596.512 386.29 573.142 375.201 548.329 369.052C492.239 358.493 440.062 332.503 397.458 293.901C392.225 289.186 386.424 285.167 380.195 281.942C360.183 272.985 343.172 258.285 331.243 239.64C319.314 220.996 312.984 199.216 313.028 176.967H313.173ZM807.42 206.496C794.749 213.584 782.837 221.996 771.878 231.595C763.016 241.066 751.761 247.867 739.349 251.253C726.938 254.639 713.849 254.479 701.521 250.789C683.431 246.615 665.644 241.188 648.281 234.548C621.008 225.247 593.735 215.354 566.753 205.019C552.145 201.424 538.19 195.493 525.408 187.45C515.767 176.872 507.746 164.877 501.616 151.867C484.934 181.396 484.499 199.704 506.694 213.73C534.796 231.972 564.88 246.836 596.346 258.024C629.59 267.766 663.548 274.777 697.894 278.989C717.375 282.704 737.437 281.756 756.497 276.221C775.556 270.686 793.089 260.716 807.71 247.098C822.072 235.139 825.263 223.179 807.275 206.348L807.42 206.496Z" fill="#532D15"/>
</svg>
