<?xml version="1.0" standalone="no"?>
<!DOCTYPE svg PUBLIC "-//W3C//DTD SVG 20010904//EN"
 "http://www.w3.org/TR/2001/REC-SVG-20010904/DTD/svg10.dtd">
<svg version="1.0" xmlns="http://www.w3.org/2000/svg"
 width="700.000000pt" height="700.000000pt" viewBox="0 0 700.000000 700.000000"
 preserveAspectRatio="xMidYMid meet">
<metadata>
Created by potrace 1.14, written by Peter Selinger 2001-2017
</metadata>
<g transform="translate(0.000000,700.000000) scale(0.100000,-0.100000)"
fill="#000000" stroke="none">
<path d="M4870 6249 c-143 -16 -244 -40 -375 -91 -55 -21 -104 -40 -110 -42
-25 -6 -235 -110 -318 -157 -179 -102 -403 -261 -535 -380 -67 -61 -126 -113
-191 -169 -36 -30 -69 -60 -75 -65 -6 -6 -96 -85 -201 -175 -104 -91 -192
-167 -195 -170 -3 -3 -90 -82 -195 -175 -229 -204 -809 -781 -924 -920 -134
-161 -496 -676 -576 -820 -44 -78 -206 -459 -256 -600 -42 -121 -74 -256 -86
-362 -10 -86 -10 -358 -1 -438 23 -197 116 -403 263 -585 142 -176 244 -238
452 -275 155 -27 198 -30 393 -30 196 0 258 7 405 46 155 40 442 162 776 329
383 192 428 228 1099 906 179 180 422 422 540 538 530 520 674 668 810 831 41
50 77 92 81 95 19 17 265 354 325 445 130 198 226 398 294 614 40 127 78 314
74 361 -11 127 -19 157 -69 266 -28 61 -65 191 -65 228 0 35 -46 151 -83 208
-105 163 -425 401 -670 499 -57 23 -166 56 -211 65 -16 2 -32 7 -35 9 -24 14
-252 24 -341 14z m260 -129 c25 -5 64 -11 88 -15 106 -16 237 -70 387 -163
279 -171 360 -245 440 -402 36 -72 80 -203 88 -266 3 -22 16 -65 27 -95 29
-73 33 -91 32 -184 0 -60 -9 -107 -32 -185 -86 -288 -207 -484 -416 -676 -288
-264 -455 -451 -597 -670 -35 -55 -79 -111 -96 -124 -44 -36 -92 -105 -85
-124 9 -24 16 -20 59 41 22 31 67 84 101 117 33 34 84 95 114 136 29 41 128
149 219 240 92 91 251 254 355 363 104 109 191 196 193 193 16 -16 -127 -240
-282 -441 -232 -301 -364 -449 -658 -737 -132 -128 -330 -325 -440 -438 -780
-790 -1165 -1170 -1235 -1215 -76 -48 -173 -97 -180 -90 -2 2 17 29 42 60 76
94 63 98 -72 19 -193 -113 -329 -198 -422 -265 -166 -118 -301 -178 -505 -226
-62 -14 -267 -29 -375 -27 -114 2 -153 5 -275 20 -172 21 -320 117 -448 288
-87 118 -132 223 -173 401 -11 46 -13 383 -3 445 5 30 11 71 14 90 13 83 78
268 146 418 16 35 29 65 29 67 0 6 150 346 181 412 45 93 90 126 285 212 186
82 248 110 403 182 57 27 104 49 106 49 1 0 92 43 201 96 275 133 334 160 396
185 112 44 317 101 408 114 25 3 52 8 60 10 8 2 35 7 60 10 25 4 135 29 245
55 110 27 229 54 265 60 72 13 291 15 445 3 138 -10 447 -10 520 1 50 7 180
38 310 76 80 22 146 40 169 44 267 48 534 143 599 213 l28 30 -23 15 c-46 29
-107 47 -184 53 -43 3 -92 8 -109 10 -16 2 -70 7 -119 10 -49 3 -109 8 -135
11 -25 2 -71 6 -101 9 -188 18 -231 27 -420 89 -203 66 -296 81 -423 64 -78
-9 -80 -10 -207 -47 -58 -16 -190 -51 -295 -76 -104 -25 -245 -62 -313 -81
-68 -20 -131 -37 -140 -39 -9 -2 -39 -9 -67 -15 -27 -6 -57 -13 -65 -15 -18
-3 -201 -34 -245 -41 -161 -24 -335 -93 -470 -186 -38 -26 -106 -77 -150 -113
-44 -37 -107 -84 -140 -106 -54 -36 -406 -219 -421 -219 -10 0 45 70 105 134
31 33 90 96 131 140 189 203 569 575 820 802 36 32 76 69 90 82 52 49 149 112
250 162 58 29 123 65 145 80 74 49 131 71 280 110 61 15 169 53 240 83 213 91
342 117 600 122 260 5 343 23 515 111 58 29 121 56 140 60 66 14 323 6 405
-13 58 -12 183 -4 238 17 31 12 57 26 57 31 0 19 -76 92 -119 114 -55 27 -416
133 -546 160 -152 32 -375 44 -447 25 -18 -5 -49 -11 -69 -14 -20 -3 -72 -16
-115 -30 -228 -70 -434 -123 -434 -111 0 2 37 28 83 59 176 117 386 201 583
234 116 20 282 25 354 12z m-25 -251 c95 -20 134 -26 230 -35 116 -10 275 -65
340 -119 19 -15 16 -15 -40 -10 -127 13 -323 40 -385 54 -86 19 -176 -1 -373
-84 -137 -57 -267 -87 -437 -100 -41 -3 -88 -8 -105 -10 -16 -3 -48 -7 -70
-11 -65 -9 -175 -45 -390 -125 -156 -58 -252 -85 -335 -95 l-55 -6 40 43 c91
98 174 173 250 224 123 82 205 114 370 145 61 12 218 48 350 80 329 82 424 90
610 49z m-545 -1275 c70 -27 69 -34 -1 -27 -132 14 -302 4 -376 -22 -7 -2 -13
-2 -13 0 0 8 84 48 130 61 59 18 202 11 260 -12z m400 -99 c334 -14 452 -27
633 -67 83 -19 96 -24 81 -35 -35 -25 -208 -70 -343 -89 -48 -6 -93 -14 -111
-19 -8 -2 -31 -6 -50 -9 -19 -2 -55 -8 -79 -11 -25 -4 -79 -17 -120 -30 -217
-68 -461 -83 -680 -40 -117 22 -357 27 -484 9 -54 -7 -180 -34 -280 -60 -237
-60 -308 -77 -447 -104 -134 -25 -299 -77 -420 -130 -119 -53 -802 -390 -875
-432 -33 -19 -97 -58 -143 -87 -75 -47 -81 -49 -65 -24 32 51 54 77 121 146
76 78 152 131 297 207 55 29 224 135 375 235 151 101 313 203 360 228 158 85
286 124 443 133 63 4 119 15 179 35 73 24 167 50 239 64 31 6 204 25 284 30
188 13 258 21 395 45 105 18 334 19 690 5z"/>
<path d="M3417 3483 c-1 -1 -49 -4 -107 -8 -351 -21 -522 -44 -801 -109 -143
-34 -332 -104 -433 -160 -56 -31 -223 -156 -276 -207 -14 -13 -142 -127 -234
-209 -77 -68 -259 -256 -311 -320 -68 -84 -78 -105 -66 -129 9 -16 16 -17 63
-9 29 5 85 21 123 34 209 75 420 141 604 188 113 30 256 68 316 85 113 32 317
74 415 87 97 12 104 13 170 19 36 4 117 13 180 21 63 8 133 17 155 20 51 6
152 20 280 38 55 8 124 18 154 21 30 4 64 10 75 15 12 4 23 7 26 7 19 -2 137
44 195 75 39 21 198 103 355 182 157 79 322 163 368 186 77 39 102 64 102 99
0 7 -62 19 -105 22 -2 0 -19 4 -36 9 -17 5 -58 12 -91 15 -32 4 -67 8 -76 10
-33 6 -188 19 -222 18 -19 0 -87 -4 -150 -8 -135 -10 -215 -9 -325 1 -69 6
-344 12 -348 7z m183 -63 c0 -5 -18 -10 -39 -10 -22 0 -43 5 -46 10 -4 6 12
10 39 10 25 0 46 -4 46 -10z m-430 -15 c24 -8 30 -15 20 -18 -14 -5 -252 -54
-311 -63 -47 -8 -353 -82 -444 -108 -49 -14 -129 -36 -177 -50 l-87 -24 17 23
c9 13 28 30 42 38 21 12 146 48 217 61 11 3 69 16 129 31 60 14 117 28 127 30
10 2 27 7 37 10 10 3 27 8 37 10 54 11 116 27 183 49 84 27 157 31 210 11z
m1248 -29 c57 -14 112 -26 123 -26 24 0 25 -19 2 -26 -10 -4 -54 -23 -98 -44
-103 -50 -365 -159 -526 -220 -144 -55 -187 -65 -379 -90 -188 -24 -224 -28
-295 -35 -33 -3 -71 -8 -85 -10 -14 -2 -43 -7 -65 -9 -100 -13 -137 -18 -235
-32 -137 -20 -131 -19 -230 -43 -85 -20 -210 -62 -412 -140 -109 -42 -296 -94
-378 -106 -78 -10 -303 -82 -335 -106 -14 -10 -155 -49 -178 -49 -15 0 -16 3
-6 23 17 33 55 67 273 242 395 318 408 327 614 387 115 33 511 141 562 153 48
11 160 34 190 39 19 3 58 10 85 15 28 5 70 12 95 16 25 3 52 8 60 10 14 4 49
9 140 20 19 3 78 7 130 10 52 3 122 7 155 10 33 2 101 7 150 10 151 11 278 24
284 31 3 2 61 2 130 0 91 -3 155 -11 229 -30z"/>
<path d="M4450 2718 c-315 -283 -441 -404 -635 -612 -107 -115 -128 -145 -123
-178 3 -19 11 -15 78 39 103 84 324 304 505 504 39 43 124 143 170 201 28 35
57 80 54 83 -2 2 -24 -15 -49 -37z"/>
</g>
</svg>
